<?xml version="1.0" encoding="utf-8"?>
<svg xmlns="http://www.w3.org/2000/svg" viewBox="0 0 500 500">
  <path d="M 337.769 1.868 L 343.99 2.346 L 348.775 4.26 L 352.124 7.131 L 354.995 11.921 L 356.43 18.141 L 356.43 35.845 L 359.301 35.366 L 376.526 35.366 L 385.618 35.845 L 392.316 37.28 L 399.972 41.108 L 403.8 44.458 L 407.149 49.242 L 409.542 55.463 L 410.499 60.726 L 410.977 69.818 L 410.977 74.597 L 417.197 74.597 L 428.681 75.076 L 433.944 75.076 L 441.6 76.033 L 448.299 78.904 L 453.56 82.731 L 456.909 86.084 L 460.258 90.869 L 462.172 95.175 L 462.651 97.089 L 463.129 104.745 L 463.129 287.525 L 462.172 298.53 L 460.258 311.449 L 458.344 321.019 L 455.474 332.024 L 451.167 344.464 L 446.385 355.471 L 440.643 366.954 L 435.38 375.567 L 430.595 382.265 L 424.375 389.921 L 413.848 401.405 L 407.149 407.625 L 401.886 411.931 L 394.23 417.673 L 383.704 424.372 L 372.22 430.592 L 359.301 437.291 L 345.904 443.99 L 334.899 449.253 L 315.281 458.823 L 303.797 464.564 L 292.792 470.785 L 282.266 476.526 L 272.696 482.268 L 262.169 489.445 L 253.557 495.666 L 249.729 497.58 L 246.858 497.58 L 242.073 495.187 L 232.504 488.01 L 223.891 482.268 L 211.929 475.091 L 203.316 470.306 L 190.876 463.607 L 182.741 459.301 L 172.214 454.516 L 164.558 450.688 L 145.419 441.597 L 124.366 431.071 L 111.447 423.415 L 102.355 417.195 L 95.657 411.931 L 88.958 406.19 L 84.173 401.883 L 78.91 396.62 L 75.56 392.792 L 69.819 386.093 L 62.641 376.524 L 56.421 366.476 L 49.722 353.555 L 44.459 340.636 L 40.153 326.76 L 36.803 310.492 L 35.368 299.487 L 34.411 285.133 L 34.411 99.482 L 35.368 93.74 L 39.196 87.041 L 43.981 82.253 L 50.201 78.425 L 55.943 76.033 L 58.335 75.554 L 73.646 75.076 L 85.13 74.119 L 85.609 72.683 L 87.044 56.42 L 89.436 49.721 L 94.221 43.501 L 100.441 39.194 L 106.662 36.802 L 110.968 35.845 L 119.581 35.366 L 140.155 34.888 L 139.677 29.625 L 139.677 22.926 L 140.634 15.27 L 143.026 9.524 L 145.897 6.174 L 149.725 3.782 L 154.988 2.346 L 160.252 2.346 L 165.515 4.26 L 169.343 7.61 L 171.257 10.002 L 172.693 13.356 L 173.65 21.012 L 173.65 32.495 L 173.172 35.366 L 322.458 35.366 L 322.937 21.49 L 324.372 13.356 L 326.764 7.61 L 331.071 3.782 L 334.899 2.346 L 337.769 1.868 Z" fill="#D5BBF8" style="stroke-width: 1;"/>
  <path d="M 428.681 75.076 L 433.944 75.076 L 441.6 76.033 L 448.299 78.904 L 453.56 82.731 L 456.909 86.084 L 460.258 90.869 L 462.172 95.175 L 462.651 97.089 L 463.129 104.745 L 463.129 287.525 L 462.172 298.53 L 460.258 311.449 L 458.344 321.019 L 455.474 332.024 L 451.167 344.464 L 446.385 355.471 L 440.643 366.954 L 435.38 375.567 L 430.595 382.265 L 424.375 389.921 L 413.848 401.405 L 407.149 407.625 L 401.886 411.931 L 394.23 417.673 L 383.704 424.372 L 372.22 430.592 L 359.301 437.291 L 345.904 443.99 L 334.899 449.253 L 315.281 458.823 L 303.797 464.564 L 292.792 470.785 L 282.266 476.526 L 272.696 482.268 L 262.169 489.445 L 253.557 495.666 L 249.729 497.58 L 246.858 497.58 L 242.073 495.187 L 232.504 488.01 L 223.891 482.268 L 211.929 475.091 L 203.316 470.306 L 190.876 463.607 L 182.741 459.301 L 172.214 454.516 L 164.558 450.688 L 145.419 441.597 L 124.366 431.071 L 111.447 423.415 L 102.355 417.195 L 95.657 411.931 L 88.958 406.19 L 84.173 401.883 L 78.91 396.62 L 75.56 392.792 L 69.819 386.093 L 62.641 376.524 L 56.421 366.476 L 49.722 353.555 L 44.459 340.636 L 40.153 326.76 L 36.803 310.492 L 35.368 299.487 L 34.411 285.133 L 34.411 99.482 L 35.368 93.74 L 39.196 87.041 L 43.981 82.253 L 50.201 78.425 L 55.943 76.033 L 58.335 75.554 L 68.383 75.554 L 68.862 76.033 L 69.34 288.003 L 71.254 301.879 L 73.168 313.363 L 76.996 326.76 L 80.345 335.852 L 86.087 347.335 L 91.35 355.949 L 97.092 363.605 L 100.92 368.39 L 106.662 374.61 L 110.011 377.959 L 113.839 381.309 L 121.495 387.529 L 128.672 392.314 L 133.935 395.663 L 141.591 399.491 L 148.768 403.319 L 162.166 409.539 L 171.735 413.845 L 178.914 417.195 L 195.66 425.329 L 206.666 430.592 L 220.541 438.248 L 228.197 442.554 L 236.81 447.817 L 245.901 454.038 L 247.815 455.473 L 250.207 454.516 L 258.342 448.774 L 267.911 443.033 L 288.964 431.549 L 297.099 427.243 L 310.974 421.022 L 323.893 414.802 L 331.071 411.453 L 344.468 405.233 L 353.559 400.926 L 364.564 394.706 L 371.263 390.878 L 374.134 388.486 L 377.483 386.572 L 382.747 382.265 L 384.182 381.787 L 384.182 380.83 L 389.445 376.524 L 392.795 372.696 L 397.101 368.39 L 402.364 361.691 L 406.671 355.471 L 411.456 347.335 L 415.762 337.766 L 419.111 330.588 L 422.461 320.062 L 425.81 305.229 L 427.245 293.745 L 427.724 286.568 L 427.724 133.454 L 428.202 75.554 L 428.681 75.076 Z" fill="#430F60" style="stroke-width: 1;"/>
  <path d="M 337.769 1.868 L 343.99 2.346 L 348.775 4.26 L 352.124 7.131 L 354.995 11.921 L 356.43 18.141 L 356.43 35.845 L 359.301 35.366 L 376.526 35.366 L 385.618 35.845 L 392.316 37.28 L 399.972 41.108 L 403.8 44.458 L 407.149 49.242 L 409.542 55.463 L 410.499 60.726 L 410.977 69.818 L 410.499 108.573 L 409.542 110.487 L 403.321 110.965 L 380.833 110.965 L 271.261 111.444 L 91.35 111.444 L 87.044 110.965 L 85.609 108.573 L 85.609 72.683 L 87.044 56.42 L 89.436 49.721 L 94.221 43.501 L 100.441 39.194 L 106.662 36.802 L 110.968 35.845 L 119.581 35.366 L 140.155 34.888 L 139.677 29.625 L 139.677 22.926 L 140.634 15.27 L 143.026 9.524 L 145.897 6.174 L 149.725 3.782 L 154.988 2.346 L 160.252 2.346 L 165.515 4.26 L 169.343 7.61 L 171.257 10.002 L 172.693 13.356 L 173.65 21.012 L 173.65 32.495 L 173.172 35.366 L 322.458 35.366 L 322.937 21.49 L 324.372 13.356 L 326.764 7.61 L 331.071 3.782 L 334.899 2.346 L 337.769 1.868 Z" fill="#5C277F" style="stroke-width: 1;"/>
  <path d="M 428.681 75.076 L 433.944 75.076 L 441.6 76.033 L 448.299 78.904 L 453.56 82.731 L 456.909 86.084 L 460.258 90.869 L 462.172 95.175 L 462.651 97.089 L 463.129 104.745 L 463.129 287.525 L 462.172 298.53 L 460.258 311.449 L 458.344 321.019 L 455.474 332.024 L 451.167 344.464 L 446.385 355.471 L 440.643 366.954 L 435.38 375.567 L 430.595 382.265 L 424.375 389.921 L 413.848 401.405 L 407.149 407.625 L 401.886 411.931 L 394.23 417.673 L 383.704 424.372 L 372.22 430.592 L 359.301 437.291 L 345.904 443.99 L 334.899 449.253 L 324.85 454.038 L 324.372 452.602 L 324.372 450.688 L 324.372 449.253 L 322.937 448.296 L 322.937 447.339 L 321.98 447.339 L 321.501 446.382 L 319.109 444.947 L 318.152 443.511 L 317.673 438.726 L 315.281 435.855 L 315.281 434.898 L 311.453 434.898 L 306.19 432.028 L 305.233 431.549 L 305.233 430.114 L 304.276 430.592 L 298.534 430.592 L 296.62 431.071 L 296.142 432.028 L 293.749 433.463 L 291.357 434.42 L 291.357 435.377 L 286.093 438.726 L 281.309 439.683 L 280.83 440.64 L 278.438 440.64 L 278.438 441.597 L 273.653 442.554 L 272.217 443.99 L 271.261 443.033 L 269.825 444.468 L 268.868 445.904 L 267.433 445.904 L 267.433 446.86 L 265.997 446.86 L 265.519 447.817 L 263.605 447.817 L 263.605 448.774 L 261.691 448.774 L 261.212 450.688 L 259.777 450.688 L 259.777 451.645 L 256.428 454.516 L 249.729 456.909 L 246.858 456.909 L 245.423 455.952 L 245.423 454.995 L 243.03 454.038 L 238.724 450.688 L 229.154 444.947 L 225.326 442.554 L 215.278 437.291 L 213.364 435.855 L 209.536 433.941 L 204.752 431.071 L 194.703 426.286 L 184.177 421.501 L 176.521 417.673 L 164.079 411.931 L 158.816 409.539 L 135.849 398.055 L 130.586 395.184 L 125.801 391.835 L 123.409 390.878 L 115.753 384.658 L 115.274 383.701 L 113.36 382.744 L 112.882 381.787 L 110.49 380.352 L 105.705 375.088 L 99.963 369.346 L 98.049 366.954 L 95.657 364.562 L 91.829 359.777 L 90.872 358.341 L 90.872 356.427 L 89.436 355.949 L 87.044 351.641 L 87.044 350.685 L 85.609 350.206 L 85.13 347.814 L 83.695 347.335 L 83.216 344.464 L 82.259 344.464 L 78.431 336.809 L 74.603 327.239 L 71.733 316.234 L 70.776 311.928 L 70.297 304.272 L 68.383 296.138 L 67.426 289.917 L 67.426 75.554 L 68.862 76.033 L 69.34 288.003 L 71.254 301.879 L 73.168 313.363 L 76.996 326.76 L 80.345 335.852 L 86.087 347.335 L 91.35 355.949 L 97.092 363.605 L 100.92 368.39 L 106.662 374.61 L 110.011 377.959 L 113.839 381.309 L 121.495 387.529 L 128.672 392.314 L 133.935 395.663 L 141.591 399.491 L 148.768 403.319 L 162.166 409.539 L 171.735 413.845 L 178.914 417.195 L 195.66 425.329 L 206.666 430.592 L 220.541 438.248 L 228.197 442.554 L 236.81 447.817 L 245.901 454.038 L 247.815 455.473 L 250.207 454.516 L 258.342 448.774 L 267.911 443.033 L 288.964 431.549 L 297.099 427.243 L 310.974 421.022 L 323.893 414.802 L 331.071 411.453 L 344.468 405.233 L 353.559 400.926 L 364.564 394.706 L 371.263 390.878 L 374.134 388.486 L 377.483 386.572 L 382.747 382.265 L 384.182 381.787 L 384.182 380.83 L 389.445 376.524 L 392.795 372.696 L 397.101 368.39 L 402.364 361.691 L 406.671 355.471 L 411.456 347.335 L 415.762 337.766 L 419.111 330.588 L 422.461 320.062 L 425.81 305.229 L 427.245 293.745 L 427.724 286.568 L 427.724 133.454 L 428.202 75.554 L 428.681 75.076 Z" fill="#7C43A0" style="stroke-width: 1;"/>
  <path d="M 204.752 211.446 L 209.058 212.403 L 212.407 214.796 L 213.843 219.102 L 214.321 276.998 L 216.235 283.697 L 220.063 291.353 L 224.369 296.616 L 230.59 301.401 L 237.288 304.75 L 243.03 306.186 L 253.078 306.186 L 259.298 304.75 L 265.04 302.358 L 271.739 297.573 L 276.045 293.267 L 280.352 285.611 L 282.266 278.912 L 282.744 275.563 L 282.744 247.333 L 281.309 247.811 L 277.959 251.639 L 275.088 254.031 L 270.782 254.988 L 266.476 253.074 L 264.562 250.682 L 264.083 249.246 L 264.083 244.94 L 267.911 240.155 L 273.653 233.935 L 277.002 230.107 L 281.309 225.322 L 286.093 219.581 L 289.443 217.667 L 293.749 218.145 L 298.055 221.973 L 301.883 227.236 L 307.147 232.978 L 311.453 238.241 L 315.281 242.069 L 317.195 244.94 L 317.673 246.376 L 317.673 250.682 L 315.759 253.553 L 312.41 254.988 L 308.582 254.988 L 305.233 253.074 L 299.491 246.854 L 299.012 270.3 L 298.534 278.434 L 296.62 286.568 L 296.142 292.788 L 295.663 304.272 L 293.749 318.626 L 292.314 326.76 L 291.357 331.067 L 288.964 336.809 L 286.093 343.986 L 283.223 349.728 L 281.309 352.598 L 280.352 354.514 L 278.438 357.384 L 277.002 358.82 L 276.524 359.777 L 276.045 361.212 L 274.61 362.648 L 272.696 365.04 L 271.739 365.04 L 270.782 367.433 L 266.954 371.26 L 267.911 370.782 L 267.911 374.131 L 268.868 375.567 L 274.61 376.045 L 275.088 375.088 L 276.045 375.567 L 276.045 374.61 L 280.83 374.61 L 280.83 373.653 L 287.05 372.696 L 291.357 370.303 L 293.271 368.868 L 296.142 368.868 L 296.62 367.911 L 299.491 366.954 L 303.319 364.562 L 303.319 363.605 L 307.625 360.255 L 309.061 360.734 L 308.104 361.691 L 311.453 359.298 L 311.931 358.341 L 309.539 359.298 L 309.539 358.341 L 312.888 357.384 L 312.888 358.341 L 313.845 358.341 L 313.845 354.992 L 311.931 349.728 L 312.888 345.9 L 313.845 345.9 L 313.367 342.55 L 314.324 341.593 L 314.802 340.158 L 316.238 338.244 L 317.195 336.33 L 319.587 333.938 L 320.544 333.938 L 321.023 332.502 L 323.893 330.588 L 328.2 329.153 L 341.597 328.674 L 343.99 325.803 L 349.731 314.32 L 352.602 307.143 L 353.081 306.186 L 354.038 306.186 L 354.995 303.315 L 356.43 301.401 L 358.344 294.702 L 360.737 290.874 L 360.737 288.482 L 361.215 288.003 L 365.043 288.003 L 366.478 288.96 L 365.043 290.396 L 364.564 293.745 L 364.564 294.702 L 363.607 294.702 L 363.129 298.53 L 360.737 308.1 L 357.866 316.712 L 356.43 321.497 L 354.038 324.847 L 353.081 324.847 L 352.602 327.717 L 349.253 334.416 L 349.731 337.287 L 348.775 337.287 L 350.21 339.679 L 351.167 343.029 L 353.559 346.857 L 354.038 350.685 L 352.124 357.384 L 349.731 361.212 L 348.775 361.212 L 348.296 363.126 L 346.382 365.04 L 340.64 367.911 L 336.334 369.346 L 331.071 369.346 L 327.243 367.911 L 322.937 366.954 L 318.152 364.083 L 315.759 363.126 L 313.845 364.562 L 312.888 364.562 L 311.931 366.476 L 307.625 367.911 L 307.625 368.868 L 304.754 369.825 L 304.276 368.868 L 303.797 370.303 L 302.362 370.782 L 300.448 372.217 L 298.055 372.696 L 297.099 372.217 L 296.62 373.174 L 292.314 374.61 L 290.4 375.567 L 287.05 377.002 L 284.18 377.959 L 282.266 378.438 L 281.309 377.959 L 280.83 379.395 L 278.438 379.873 L 277.481 379.395 L 277.481 380.352 L 272.217 380.83 L 267.911 381.309 L 267.911 388.964 L 266.954 388.964 L 266.954 391.357 L 263.126 396.62 L 260.734 398.534 L 255.949 400.926 L 250.207 401.883 L 244.466 401.883 L 237.767 399.969 L 237.288 399.012 L 234.417 397.577 L 234.417 396.62 L 232.504 395.663 L 230.59 392.792 L 229.633 392.314 L 227.719 387.529 L 227.24 387.05 L 226.762 381.309 L 225.326 379.395 L 215.278 376.524 L 215.278 375.567 L 209.536 374.61 L 204.752 373.174 L 204.273 371.739 L 201.881 371.26 L 194.225 367.433 L 188.962 364.083 L 184.177 362.169 L 184.177 361.212 L 180.828 362.648 L 178.435 364.083 L 174.129 365.519 L 172.214 366.476 L 166.95 365.997 L 159.773 363.605 L 156.902 362.169 L 156.902 361.212 L 155.945 361.212 L 155.945 360.255 L 154.51 360.255 L 154.031 358.341 L 152.596 357.863 L 152.117 356.427 L 151.16 356.427 L 151.16 355.471 L 150.204 354.992 L 150.204 352.598 L 149.247 352.598 L 148.768 343.986 L 149.725 336.809 L 152.117 333.938 L 152.117 331.067 L 150.204 328.674 L 150.682 328.196 L 149.247 327.239 L 149.725 326.282 L 147.811 325.325 L 147.333 322.454 L 144.94 320.062 L 144.462 318.148 L 143.026 316.712 L 143.505 314.32 L 142.548 314.32 L 142.548 312.884 L 140.634 312.406 L 138.72 307.621 L 138.72 304.75 L 137.763 302.358 L 137.285 299.009 L 136.328 299.009 L 134.892 294.702 L 132.5 288.003 L 132.5 286.568 L 126.279 285.133 L 124.366 284.654 L 124.844 287.046 L 123.409 295.181 L 122.93 302.358 L 121.973 305.707 L 121.973 316.712 L 121.495 320.062 L 122.452 320.062 L 121.973 322.454 L 122.93 322.454 L 123.409 326.76 L 124.366 332.981 L 123.887 333.938 L 124.844 333.938 L 125.322 339.679 L 124.844 340.636 L 125.801 341.115 L 125.322 342.072 L 126.279 342.55 L 127.236 345.9 L 129.629 352.12 L 131.064 352.598 L 131.064 353.555 L 135.371 354.514 L 135.371 355.471 L 138.241 356.427 L 141.112 359.777 L 142.069 362.648 L 142.069 367.433 L 140.634 369.825 L 137.763 372.217 L 135.371 373.174 L 131.543 373.174 L 127.236 370.782 L 124.844 367.911 L 124.366 366.476 L 124.366 360.255 L 125.322 356.906 L 123.887 352.598 L 122.452 348.771 L 120.059 341.115 L 118.145 333.938 L 117.667 332.981 L 116.231 316.234 L 116.231 308.578 L 115.753 306.664 L 116.231 305.229 L 116.231 301.879 L 117.188 293.745 L 118.145 293.267 L 117.667 290.396 L 118.145 289.917 L 118.624 286.568 L 120.059 283.219 L 120.538 280.826 L 117.667 277.955 L 118.145 276.998 L 122.452 281.305 L 122.452 282.262 L 124.844 283.219 L 128.193 284.654 L 130.586 285.133 L 137.285 285.133 L 141.112 283.697 L 142.548 284.176 L 138.72 286.09 L 138.72 287.046 L 139.677 288.003 L 143.026 297.573 L 144.94 302.358 L 146.376 304.75 L 151.16 314.798 L 156.424 323.89 L 158.816 326.282 L 162.166 325.803 L 165.515 324.847 L 172.214 324.847 L 177.478 326.76 L 181.784 329.631 L 184.177 331.545 L 187.048 335.852 L 188.962 340.636 L 189.44 343.507 L 189.44 348.771 L 188.483 353.555 L 188.962 355.471 L 191.354 357.863 L 199.967 363.126 L 207.144 366.476 L 221.02 371.739 L 224.369 372.696 L 225.805 372.217 L 226.283 373.174 L 228.197 373.174 L 230.111 369.346 L 234.417 364.083 L 239.202 361.212 L 244.944 359.777 L 251.164 359.777 L 253.557 360.734 L 255.949 361.212 L 259.777 363.605 L 263.126 365.997 L 266.954 365.997 L 269.347 363.605 L 271.261 360.255 L 272.217 359.298 L 273.174 357.384 L 275.567 354.992 L 276.045 354.034 L 277.002 352.598 L 277.481 351.163 L 278.916 348.292 L 280.352 348.292 L 280.83 346.857 L 281.787 346.857 L 282.744 344.464 L 286.572 336.809 L 289.443 328.674 L 291.357 319.105 L 291.835 314.32 L 291.835 308.1 L 289.921 306.186 L 288.964 304.272 L 288.964 302.836 L 286.572 305.229 L 282.744 309.535 L 277.959 313.363 L 271.739 317.191 L 262.169 321.019 L 257.863 321.976 L 251.643 322.454 L 245.423 322.454 L 237.288 321.497 L 230.111 319.105 L 223.412 315.755 L 217.671 311.928 L 211.929 306.664 L 206.666 300.444 L 202.838 293.745 L 199.488 284.654 L 198.053 276.041 L 198.053 217.667 L 199.488 214.317 L 203.316 211.925 L 204.752 211.446 Z" fill="#C7AAEF" style="stroke-width: 1;"/>
  <path d="M 337.769 1.868 L 343.99 2.346 L 348.775 4.26 L 352.124 7.131 L 354.995 11.921 L 356.43 18.141 L 356.43 35.845 L 359.301 35.366 L 376.526 35.366 L 385.618 35.845 L 392.316 37.28 L 399.972 41.108 L 403.8 44.458 L 407.149 49.242 L 409.542 55.463 L 410.499 60.726 L 410.977 69.818 L 410.499 108.573 L 409.542 110.487 L 403.321 110.965 L 380.833 110.965 L 271.261 111.444 L 91.35 111.444 L 87.044 110.965 L 85.609 108.573 L 85.609 72.683 L 86.087 67.426 L 86.565 67.426 L 87.044 73.64 L 87.044 108.094 L 88.479 109.53 L 200.924 110.008 L 214.321 110.008 L 289.921 109.53 L 310.018 109.051 L 312.888 108.094 L 315.759 106.659 L 313.367 105.224 L 312.888 103.31 L 314.324 103.31 L 314.802 100.917 L 315.759 100.439 L 316.716 96.611 L 316.716 93.261 L 312.888 87.52 L 311.453 86.084 L 311.931 81.774 L 310.496 81.774 L 310.974 79.382 L 311.453 77.947 L 309.061 75.076 L 308.582 72.683 L 306.668 67.904 L 304.276 67.904 L 303.797 65.512 L 304.754 63.598 L 300.448 63.598 L 301.405 61.204 L 300.448 61.204 L 300.926 58.812 L 299.491 58.333 L 299.491 54.984 L 296.62 54.984 L 295.185 54.027 L 295.185 53.07 L 294.228 53.07 L 294.228 50.678 L 293.271 50.199 L 290.4 49.721 L 288.964 48.764 L 289.443 46.85 L 291.357 46.371 L 291.835 44.936 L 290.4 44.458 L 291.835 43.022 L 292.792 42.544 L 292.792 41.587 L 289.921 41.587 L 288.964 40.151 L 288.964 38.716 L 289.921 38.237 L 288.964 37.28 L 290.878 36.802 L 278.438 36.323 L 277.959 37.759 L 275.567 38.237 L 273.653 37.28 L 273.653 36.323 L 232.982 36.323 L 224.848 35.845 L 224.848 35.366 L 322.458 35.366 L 322.937 21.49 L 324.372 13.356 L 326.764 7.61 L 331.071 3.782 L 334.899 2.346 L 337.769 1.868 Z" fill="#7B439F" style="stroke-width: 1;"/>
  <path d="M 148.768 404.754 L 151.16 405.233 L 159.295 409.539 L 170.3 414.324 L 179.871 418.63 L 187.526 422.458 L 207.622 432.028 L 211.929 434.898 L 214.8 436.334 L 218.628 438.726 L 226.283 442.554 L 234.896 447.817 L 240.159 451.167 L 243.03 453.559 L 245.423 454.995 L 245.423 455.952 L 249.729 456.43 L 256.428 454.038 L 258.342 452.124 L 259.777 451.645 L 259.777 450.688 L 261.212 450.688 L 261.691 448.774 L 263.605 448.774 L 263.605 447.817 L 265.519 447.817 L 265.997 446.382 L 267.433 446.86 L 267.433 445.904 L 268.868 445.425 L 270.304 443.033 L 272.217 442.554 L 272.696 443.033 L 273.653 442.076 L 278.438 441.597 L 278.438 440.64 L 284.658 438.726 L 288.964 436.334 L 291.357 435.377 L 291.357 434.42 L 294.228 432.506 L 296.142 432.028 L 296.62 430.592 L 300.926 430.114 L 305.233 430.114 L 305.233 431.549 L 308.104 432.506 L 311.453 434.42 L 315.281 434.898 L 317.195 437.769 L 318.152 438.726 L 318.63 443.511 L 320.066 445.425 L 321.98 446.382 L 321.98 447.339 L 322.937 447.339 L 324.85 449.731 L 325.329 452.602 L 324.372 452.602 L 323.893 454.516 L 303.797 464.564 L 292.792 470.785 L 282.266 476.526 L 272.696 482.268 L 262.169 489.445 L 253.557 495.666 L 249.729 497.58 L 246.858 497.58 L 242.073 495.187 L 232.504 488.01 L 223.891 482.268 L 211.929 475.091 L 203.316 470.306 L 190.876 463.607 L 182.741 459.301 L 172.214 454.516 L 164.558 450.688 L 145.419 441.597 L 128.193 432.985 L 128.672 432.028 L 130.586 432.506 L 132.021 432.506 L 132.978 433.463 L 132.978 432.506 L 140.155 434.898 L 143.505 435.377 L 144.462 436.334 L 146.376 436.812 L 146.854 437.769 L 151.639 437.291 L 154.031 436.812 L 155.467 436.334 L 155.945 434.898 L 160.252 433.941 L 161.687 432.506 L 162.166 429.157 L 161.209 428.2 L 163.123 424.372 L 167.429 424.85 L 168.386 424.85 L 168.386 423.893 L 169.343 423.893 L 168.864 421.022 L 171.735 421.501 L 174.607 422.458 L 174.607 421.501 L 175.564 421.022 L 172.693 418.63 L 169.821 417.673 L 168.386 416.716 L 162.644 415.281 L 159.773 413.845 L 158.816 412.41 L 158.816 410.974 L 155.467 410.496 L 154.988 409.06 L 151.16 408.103 L 149.725 406.19 L 149.725 405.233 L 148.768 404.754 Z" fill="#5C277F" style="stroke-width: 1;"/>
  <path d="M 110.968 35.845 L 135.849 35.845 L 135.849 36.802 L 137.285 36.802 L 138.241 39.673 L 138.72 71.726 L 139.677 71.726 L 142.548 78.425 L 145.897 81.296 L 148.29 83.688 L 150.204 84.645 L 153.074 85.124 L 153.553 86.084 L 160.73 86.563 L 161.687 87.041 L 167.907 87.52 L 171.257 86.563 L 173.65 85.606 L 177 85.606 L 181.784 84.645 L 185.134 85.124 L 186.091 86.084 L 188.962 86.563 L 189.44 89.434 L 189.919 91.348 L 192.311 92.783 L 193.747 96.132 L 197.096 97.568 L 195.182 100.917 L 194.703 104.267 L 197.574 105.702 L 200.445 106.659 L 202.359 109.051 L 199.488 109.53 L 87.522 109.53 L 86.565 108.094 L 86.565 60.726 L 87.522 54.506 L 89.915 49.242 L 93.743 43.979 L 99.484 39.673 L 105.226 37.28 L 110.968 35.845 Z" fill="#430F60" style="stroke-width: 1;"/>
  <path d="M 204.752 211.446 L 209.058 212.403 L 212.407 214.796 L 213.843 219.102 L 214.321 276.998 L 216.235 283.697 L 220.063 291.353 L 224.369 296.616 L 230.59 301.401 L 237.288 304.75 L 243.03 306.186 L 253.078 306.186 L 259.298 304.75 L 265.04 302.358 L 271.739 297.573 L 276.045 293.267 L 280.352 285.611 L 282.266 278.912 L 282.744 275.563 L 282.744 247.333 L 281.309 247.811 L 277.959 251.639 L 275.088 254.031 L 270.782 254.988 L 266.476 253.074 L 264.562 250.682 L 264.083 249.246 L 264.083 244.94 L 267.911 240.155 L 273.653 233.935 L 277.002 230.107 L 281.309 225.322 L 286.093 219.581 L 289.443 217.667 L 293.749 218.145 L 298.055 221.973 L 301.883 227.236 L 307.147 232.978 L 311.453 238.241 L 315.281 242.069 L 317.195 244.94 L 317.673 246.376 L 317.673 250.682 L 315.759 253.553 L 312.41 254.988 L 308.582 254.988 L 305.233 253.074 L 299.491 246.854 L 299.012 270.3 L 298.534 278.434 L 296.62 286.568 L 294.228 293.267 L 290.878 299.487 L 286.093 305.707 L 282.744 309.535 L 277.959 313.363 L 271.739 317.191 L 262.169 321.019 L 257.863 321.976 L 251.643 322.454 L 245.423 322.454 L 237.288 321.497 L 230.111 319.105 L 223.412 315.755 L 217.671 311.928 L 211.929 306.664 L 206.666 300.444 L 202.838 293.745 L 199.488 284.654 L 198.053 276.041 L 198.053 217.667 L 199.488 214.317 L 203.316 211.925 L 204.752 211.446 Z" fill="#7B429F" style="stroke-width: 1;"/>
  <path d="M 80.824 74.597 L 85.13 74.597 L 85.13 92.783 L 84.652 97.089 L 84.173 107.137 L 83.695 108.573 L 85.13 112.879 L 88.958 113.836 L 101.398 114.315 L 114.796 114.315 L 119.581 114.793 L 123.887 116.229 L 126.279 117.186 L 127.715 118.143 L 129.629 118.621 L 129.15 120.056 L 127.236 120.056 L 124.366 123.406 L 122.452 125.798 L 124.366 125.32 L 124.366 126.277 L 121.973 128.191 L 121.016 129.626 L 121.973 130.583 L 117.188 134.889 L 114.317 139.196 L 112.882 139.196 L 113.36 141.11 L 110.49 144.459 L 108.576 147.33 L 107.619 147.33 L 107.619 148.287 L 106.662 148.287 L 106.662 149.244 L 104.748 151.158 L 103.791 155.943 L 99.963 160.727 L 99.006 160.727 L 97.571 165.512 L 94.7 171.254 L 91.35 178.431 L 88.001 183.694 L 85.609 188.479 L 84.652 188.479 L 84.652 189.915 L 80.824 193.743 L 78.91 193.743 L 78.91 196.613 L 76.996 198.527 L 76.517 197.57 L 75.56 198.049 L 74.603 204.748 L 74.125 208.576 L 73.168 218.624 L 73.168 230.586 L 72.69 232.5 L 72.69 240.155 L 72.211 244.94 L 71.733 244.94 L 71.254 235.37 L 70.776 217.667 L 70.776 213.839 L 70.297 211.446 L 70.297 156.9 L 70.776 141.11 L 70.776 114.315 L 70.297 109.53 L 70.297 76.033 L 69.34 75.554 L 80.824 74.597 Z" fill="#E0CCF9" style="stroke-width: 1;"/>
  <path d="M 71.733 278.434 L 73.646 278.434 L 74.125 280.348 L 74.603 292.31 L 75.56 293.267 L 77.474 299.965 L 78.91 306.186 L 80.345 309.057 L 80.345 310.014 L 82.259 310.971 L 84.173 313.841 L 86.087 314.798 L 87.044 320.54 L 91.35 325.803 L 92.786 329.153 L 96.135 333.459 L 100.441 338.722 L 103.312 342.072 L 105.705 345.9 L 104.269 341.593 L 104.269 338.244 L 105.705 338.722 L 106.183 339.679 L 106.183 337.287 L 107.619 337.287 L 109.054 339.201 L 109.533 341.593 L 110.49 341.593 L 111.925 343.507 L 114.317 343.029 L 116.231 342.55 L 117.667 343.986 L 121.495 352.12 L 122.93 354.514 L 122.452 358.82 L 121.016 366.954 L 120.059 367.433 L 120.059 366.476 L 119.102 366.476 L 119.102 365.519 L 117.667 366.476 L 118.145 368.39 L 117.667 370.303 L 118.624 372.696 L 124.366 376.045 L 127.715 377.002 L 129.15 377.002 L 131.064 376.524 L 135.371 377.481 L 136.328 378.916 L 135.849 381.309 L 131.064 378.438 L 133.457 380.83 L 136.328 382.265 L 136.806 384.658 L 142.548 387.529 L 146.376 390.4 L 150.204 394.228 L 150.204 395.184 L 154.51 395.663 L 160.252 398.534 L 162.644 400.448 L 168.864 402.84 L 177 406.668 L 179.871 408.103 L 182.263 409.539 L 186.091 411.453 L 190.397 412.888 L 194.703 414.802 L 199.01 417.195 L 203.795 420.544 L 208.579 422.458 L 210.493 423.415 L 215.757 423.415 L 220.541 423.893 L 221.498 424.372 L 227.719 424.372 L 228.197 423.893 L 224.369 423.893 L 221.498 422.936 L 221.498 422.458 L 228.676 422.458 L 224.369 421.979 L 221.02 421.022 L 221.02 420.544 L 230.59 420.544 L 236.331 421.501 L 241.116 423.415 L 240.159 424.85 L 241.116 425.329 L 241.116 427.243 L 242.552 426.286 L 248.772 429.157 L 246.858 429.635 L 242.552 428.2 L 246.379 431.071 L 249.729 433.941 L 252.121 435.377 L 252.6 436.812 L 253.557 436.812 L 254.035 437.769 L 255.471 438.248 L 256.906 443.033 L 258.342 443.033 L 257.385 447.339 L 255.471 449.253 L 254.514 449.253 L 254.514 451.167 L 249.25 454.516 L 247.336 454.516 L 242.552 451.167 L 235.374 446.382 L 221.498 438.248 L 216.235 435.377 L 209.058 431.549 L 199.967 426.764 L 188.483 421.501 L 178.435 416.716 L 172.693 413.845 L 160.73 408.582 L 151.639 404.276 L 146.376 401.405 L 138.72 397.577 L 132.5 394.228 L 127.715 391.357 L 122.93 388.007 L 117.667 383.701 L 115.274 381.787 L 112.882 379.395 L 108.097 375.088 L 105.226 372.696 L 101.877 368.868 L 100.92 366.954 L 99.963 366.954 L 95.178 360.255 L 89.915 352.12 L 85.609 344.943 L 84.652 341.593 L 81.302 333.938 L 78.431 325.803 L 77.474 321.019 L 77.953 320.062 L 76.517 319.583 L 74.603 311.928 L 74.125 309.057 L 75.082 309.057 L 74.125 303.315 L 73.646 303.315 L 74.125 298.53 L 73.646 295.659 L 73.168 290.874 L 72.211 290.874 L 72.69 286.568 L 72.211 287.046 L 71.254 285.133 L 71.254 281.305 L 71.254 280.348 L 71.733 278.434 Z" fill="#E0CCF9" style="stroke-width: 1;"/>
  <path d="M 337.769 1.868 L 343.99 2.346 L 348.775 4.26 L 352.124 7.131 L 354.995 11.921 L 356.43 18.141 L 356.43 35.845 L 357.387 35.845 L 357.387 68.383 L 356.43 74.119 L 354.516 77.947 L 350.688 81.774 L 344.947 84.645 L 343.033 85.124 L 337.769 85.124 L 331.549 82.731 L 327.721 79.86 L 324.85 76.033 L 322.937 72.205 L 322.458 70.297 L 321.98 36.802 L 321.501 35.366 L 322.458 35.366 L 322.937 21.49 L 324.372 13.356 L 326.764 7.61 L 331.071 3.782 L 334.899 2.346 L 337.769 1.868 Z" fill="#C7AAEF" style="stroke-width: 1;"/>
  <path d="M 154.988 2.346 L 160.252 2.346 L 165.515 4.26 L 169.343 7.61 L 171.257 10.002 L 172.693 13.356 L 173.65 21.012 L 173.65 32.495 L 173.172 35.366 L 175.564 35.366 L 174.607 36.802 L 174.129 69.818 L 173.172 73.64 L 171.257 77.468 L 167.907 80.817 L 166.95 80.817 L 166.95 81.774 L 161.209 84.167 L 159.295 84.645 L 154.988 84.645 L 149.247 82.731 L 145.897 80.817 L 145.897 79.86 L 143.983 78.904 L 141.112 74.119 L 139.677 69.818 L 139.677 40.151 L 139.198 34.888 L 140.155 34.888 L 139.677 29.625 L 139.677 22.926 L 140.634 15.27 L 143.026 9.524 L 145.897 6.174 L 149.725 3.782 L 154.988 2.346 Z" fill="#C7AAEF" style="stroke-width: 1;"/>
  <path d="M 273.653 35.845 L 317.195 35.845 L 316.716 39.194 L 319.587 40.151 L 320.066 43.022 L 321.023 44.458 L 321.023 61.204 L 321.501 70.775 L 325.329 77.947 L 325.807 79.382 L 326.764 79.382 L 328.678 81.774 L 332.506 84.167 L 332.506 85.124 L 333.463 85.606 L 333.942 87.52 L 334.899 87.52 L 336.812 89.434 L 338.248 88.955 L 338.248 89.912 L 342.554 90.869 L 346.382 91.348 L 348.296 90.869 L 350.21 91.348 L 351.167 89.912 L 359.78 88.477 L 362.172 88.955 L 364.086 89.912 L 364.086 90.869 L 365.043 90.869 L 366.478 93.261 L 365.521 95.654 L 363.607 96.611 L 363.607 98.046 L 359.301 101.396 L 360.258 103.31 L 363.607 104.745 L 363.129 106.18 L 362.172 106.18 L 362.172 107.616 L 364.086 106.18 L 365.521 103.788 L 368.871 104.745 L 369.349 102.353 L 373.177 99.482 L 374.613 99.003 L 375.091 97.568 L 374.613 94.697 L 374.613 91.348 L 373.656 89.434 L 374.613 87.041 L 371.263 87.52 L 369.828 87.041 L 367.435 84.645 L 362.65 85.124 L 357.387 85.124 L 358.823 84.167 L 360.737 83.688 L 362.172 82.731 L 366 82.253 L 366.957 79.382 L 368.392 75.554 L 370.306 75.076 L 372.22 76.033 L 372.699 74.597 L 374.613 74.119 L 375.091 76.033 L 375.569 78.904 L 376.526 80.817 L 378.919 81.296 L 378.919 83.688 L 377.483 84.167 L 377.962 86.563 L 379.397 87.52 L 379.397 90.391 L 377.962 89.912 L 378.44 91.826 L 380.833 92.305 L 380.354 97.089 L 382.268 97.568 L 382.268 98.525 L 381.311 98.525 L 381.311 99.482 L 380.354 99.482 L 380.354 102.353 L 381.311 100.917 L 383.225 101.396 L 383.704 103.31 L 380.354 104.267 L 377.962 105.702 L 372.699 106.18 L 372.699 107.137 L 371.263 108.094 L 366.957 108.573 L 366 109.051 L 361.694 109.53 L 350.688 109.53 L 323.893 110.008 L 289.921 110.008 L 289.921 109.53 L 310.018 109.051 L 312.888 108.094 L 315.759 106.659 L 313.367 105.224 L 312.888 103.31 L 314.324 103.31 L 314.802 100.917 L 315.759 100.439 L 316.716 96.611 L 316.716 93.261 L 312.888 87.52 L 311.453 86.084 L 311.931 81.774 L 310.496 81.774 L 310.974 79.382 L 311.453 77.947 L 309.061 75.076 L 308.582 72.683 L 306.668 67.904 L 304.276 67.904 L 303.797 65.512 L 304.754 63.598 L 300.448 63.598 L 301.405 61.204 L 300.448 61.204 L 300.926 58.812 L 299.491 58.333 L 299.491 54.984 L 296.62 54.984 L 295.185 54.027 L 295.185 53.07 L 294.228 53.07 L 294.228 50.678 L 293.271 50.199 L 290.4 49.721 L 288.964 48.764 L 289.443 46.85 L 291.357 46.371 L 291.835 44.936 L 290.4 44.458 L 291.835 43.022 L 292.792 42.544 L 292.792 41.587 L 289.921 41.587 L 288.964 40.151 L 288.964 38.716 L 289.921 38.237 L 288.964 37.28 L 290.878 36.802 L 278.438 36.323 L 277.959 37.759 L 275.567 38.237 L 273.653 37.28 L 273.653 35.845 Z" fill="#6E3692" style="stroke-width: 1;"/>
  <path d="M 372.699 395.184 L 375.091 397.577 L 377.483 398.055 L 380.833 397.577 L 385.618 398.534 L 388.488 400.448 L 388.01 403.319 L 390.402 404.276 L 389.924 406.19 L 393.273 406.19 L 393.273 407.147 L 386.575 408.582 L 384.661 408.582 L 382.268 407.625 L 381.79 404.754 L 380.833 404.754 L 378.919 401.883 L 376.048 402.362 L 371.742 402.362 L 370.785 401.883 L 368.871 401.883 L 368.871 403.319 L 364.564 405.711 L 361.694 407.625 L 359.301 408.582 L 353.559 409.539 L 348.775 410.496 L 345.425 410.496 L 341.119 411.453 L 338.248 412.41 L 337.291 411.931 L 335.377 412.41 L 335.377 413.367 L 340.162 412.41 L 344.468 412.41 L 346.382 413.367 L 357.387 413.367 L 358.823 414.324 L 362.172 414.324 L 363.129 412.41 L 364.564 410.017 L 368.871 408.103 L 371.263 406.668 L 373.177 407.147 L 373.656 411.453 L 372.22 412.41 L 369.349 412.41 L 369.349 413.367 L 370.306 413.845 L 369.349 413.845 L 368.871 415.281 L 366.478 416.238 L 365.043 417.195 L 364.086 418.152 L 364.086 419.587 L 365.521 419.109 L 366 417.673 L 370.306 416.716 L 372.699 415.281 L 377.005 414.324 L 377.483 416.238 L 382.268 414.324 L 386.575 413.367 L 388.01 411.931 L 390.402 411.453 L 391.838 410.974 L 392.316 410.017 L 396.623 410.496 L 396.623 412.888 L 395.666 413.845 L 394.709 415.759 L 391.359 419.587 L 382.747 424.85 L 372.22 430.592 L 359.301 437.291 L 345.904 443.99 L 334.899 449.253 L 324.85 454.038 L 324.372 452.602 L 324.372 450.688 L 324.372 449.253 L 322.937 448.296 L 322.937 447.339 L 321.98 447.339 L 321.501 446.382 L 319.109 444.947 L 318.152 443.511 L 317.673 438.726 L 315.281 435.855 L 315.281 434.898 L 311.453 434.898 L 306.19 432.028 L 305.233 431.549 L 305.233 430.114 L 304.276 430.592 L 298.534 430.592 L 296.62 431.071 L 296.142 432.028 L 293.749 433.463 L 291.357 434.42 L 291.357 435.377 L 286.093 438.726 L 281.309 439.683 L 280.83 440.64 L 278.438 440.64 L 278.438 441.597 L 273.653 442.554 L 272.217 443.99 L 271.261 442.076 L 286.572 434.42 L 289.921 432.506 L 291.357 432.506 L 291.357 431.549 L 296.142 429.635 L 303.797 425.807 L 305.711 425.807 L 305.711 424.85 L 310.496 423.893 L 311.931 421.979 L 313.845 422.458 L 313.845 421.501 L 315.759 421.979 L 320.066 420.066 L 321.501 420.066 L 321.501 419.109 L 324.85 418.63 L 326.286 416.716 L 328.2 415.281 L 329.157 415.281 L 329.157 414.324 L 330.114 414.324 L 330.114 415.281 L 332.506 414.802 L 332.506 413.845 L 334.42 413.367 L 332.985 412.41 L 335.377 410.974 L 338.726 410.974 L 342.554 409.06 L 347.818 408.582 L 352.602 408.103 L 358.344 407.147 L 358.344 406.19 L 361.215 404.276 L 362.172 402.362 L 362.172 401.405 L 363.129 401.405 L 363.129 400.448 L 364.086 400.448 L 364.086 399.491 L 365.521 399.012 L 366 398.055 L 371.263 395.663 L 372.699 395.184 Z" fill="#6E3692" style="stroke-width: 1;"/>
  <path d="M 204.752 211.446 L 209.058 212.403 L 212.407 214.796 L 213.843 219.102 L 214.321 276.998 L 216.235 283.697 L 220.063 291.353 L 224.369 296.616 L 230.59 301.401 L 237.288 304.75 L 242.552 306.664 L 253.078 307.143 L 253.078 308.1 L 252.121 308.1 L 251.643 310.492 L 250.686 312.406 L 250.686 316.712 L 250.207 317.191 L 254.992 318.148 L 255.471 320.062 L 255.949 321.497 L 242.073 321.497 L 235.374 321.019 L 225.805 317.191 L 217.671 311.928 L 211.929 306.664 L 206.666 300.444 L 202.838 293.745 L 199.488 284.654 L 198.053 276.041 L 198.053 217.667 L 199.488 214.317 L 203.316 211.925 L 204.752 211.446 Z" fill="#461263" style="stroke-width: 1;"/>
  <path d="M 246.379 127.234 L 251.643 127.234 L 257.385 129.148 L 263.605 133.932 L 267.433 139.196 L 268.868 142.545 L 269.347 145.416 L 269.347 151.636 L 266.476 158.813 L 262.169 164.077 L 257.863 167.426 L 253.557 169.34 L 251.164 169.819 L 246.379 169.819 L 240.638 168.383 L 234.896 165.512 L 230.111 161.206 L 226.283 152.593 L 226.283 146.851 L 228.197 140.631 L 231.068 136.325 L 236.331 131.062 L 242.073 128.191 L 246.379 127.234 Z" fill="#40D3EC" style="stroke-width: 1;"/>
  <path d="M 362.172 243.983 L 369.349 243.983 L 375.091 245.897 L 378.919 248.289 L 383.704 254.031 L 385.618 256.902 L 387.532 261.687 L 387.532 268.386 L 385.618 273.649 L 382.747 277.955 L 379.397 281.305 L 374.134 284.654 L 371.742 285.611 L 368.392 286.09 L 363.607 286.09 L 357.866 284.176 L 353.559 281.305 L 349.731 277.477 L 346.861 272.692 L 344.947 266.95 L 344.947 262.165 L 346.861 256.902 L 350.688 250.682 L 354.995 246.854 L 360.258 244.462 L 362.172 243.983 Z" fill="#2EC4E5" style="stroke-width: 1;"/>
  <path d="M 129.15 243.983 L 134.414 243.983 L 140.155 244.94 L 145.897 247.811 L 150.204 251.639 L 153.553 256.902 L 154.51 259.773 L 154.51 268.386 L 153.074 273.171 L 150.204 277.477 L 145.419 281.783 L 142.548 283.697 L 137.285 285.611 L 130.586 285.611 L 125.801 284.176 L 122.452 282.262 L 119.102 278.434 L 115.274 273.649 L 113.36 269.821 L 112.882 268.386 L 112.882 262.165 L 114.317 256.902 L 118.145 251.16 L 121.973 247.333 L 127.715 244.462 L 129.15 243.983 Z" fill="#2EC4E5" style="stroke-width: 1;"/>
  <path d="M 411.456 74.597 L 417.197 74.597 L 427.724 75.554 L 427.245 113.358 L 426.767 127.234 L 426.289 129.148 L 425.81 141.588 L 425.81 152.115 L 424.853 152.115 L 424.853 153.072 L 425.81 153.55 L 424.853 153.55 L 425.332 156.9 L 424.375 158.813 L 423.418 157.378 L 422.461 151.158 L 421.982 150.679 L 421.982 143.024 L 421.504 143.024 L 420.547 138.717 L 420.068 136.325 L 419.111 136.803 L 419.111 138.717 L 418.154 138.717 L 418.154 139.674 L 414.805 139.196 L 412.413 136.803 L 410.02 136.325 L 409.063 135.846 L 409.063 134.889 L 404.757 133.932 L 402.364 132.018 L 398.537 130.105 L 395.666 126.755 L 398.058 127.712 L 398.537 129.148 L 401.407 130.105 L 403.321 130.583 L 405.235 130.583 L 405.235 129.626 L 401.886 129.148 L 400.929 127.234 L 398.058 126.755 L 395.187 122.927 L 393.752 123.884 L 393.273 121.97 L 393.752 121.013 L 394.709 121.013 L 394.23 118.143 L 394.709 116.229 L 399.972 114.793 L 401.886 115.272 L 402.364 114.315 L 405.235 113.836 L 410.499 111.922 L 411.934 110.008 L 412.413 106.659 L 412.413 98.525 L 411.934 81.774 L 411.456 78.904 L 411.456 74.597 Z" fill="#E0CCF9" style="stroke-width: 1;"/>
  <path d="M 68.383 75.554 L 69.819 76.033 L 70.297 128.191 L 70.297 284.654 L 71.733 298.052 L 73.646 310.492 L 76.996 323.411 L 81.781 335.852 L 86.565 345.9 L 92.786 355.949 L 96.614 361.691 L 99.963 365.997 L 99.963 366.954 L 100.92 366.954 L 104.269 370.782 L 107.14 374.131 L 110.968 377.481 L 115.274 380.83 L 115.274 381.787 L 117.188 382.744 L 121.973 387.05 L 127.236 390.4 L 130.586 392.792 L 143.983 399.491 L 148.29 401.883 L 155.467 405.711 L 165.993 410.496 L 176.043 414.802 L 191.354 422.458 L 203.795 428.2 L 210.972 432.028 L 228.197 441.597 L 235.374 445.904 L 246.858 453.559 L 248.772 454.516 L 253.557 451.167 L 254.514 451.167 L 254.514 450.21 L 263.126 444.468 L 265.997 443.033 L 274.61 438.248 L 281.787 434.42 L 282.744 434.42 L 282.744 433.463 L 286.572 431.549 L 288.486 431.071 L 288.486 430.114 L 291.835 428.2 L 299.491 424.372 L 303.797 422.458 L 309.539 420.066 L 313.845 417.673 L 318.63 415.759 L 326.764 411.453 L 328.678 410.017 L 334.42 408.103 L 338.248 406.19 L 342.554 404.276 L 343.99 404.276 L 343.99 403.319 L 348.775 401.883 L 349.253 400.926 L 356.909 397.098 L 357.866 397.098 L 358.344 396.141 L 360.258 395.663 L 360.258 394.706 L 363.607 392.792 L 364.086 391.835 L 367.914 389.921 L 369.349 389.921 L 369.349 388.964 L 373.177 386.093 L 376.526 384.179 L 382.268 379.873 L 383.225 378.438 L 384.661 378.438 L 385.618 376.524 L 388.967 372.696 L 389.924 372.696 L 390.881 370.782 L 392.316 370.303 L 393.273 368.39 L 396.144 365.04 L 397.58 364.083 L 398.537 362.169 L 399.494 362.169 L 400.451 360.255 L 404.278 354.992 L 405.714 352.12 L 406.671 351.641 L 407.628 347.814 L 408.585 347.814 L 409.063 344.943 L 410.499 342.072 L 412.891 336.33 L 415.762 331.545 L 418.154 325.325 L 418.154 324.368 L 419.111 324.368 L 419.59 321.497 L 420.547 316.712 L 421.025 312.406 L 421.982 312.406 L 421.504 310.492 L 424.853 293.745 L 425.332 284.654 L 425.332 258.338 L 425.81 246.854 L 426.289 242.548 L 426.767 128.669 L 427.245 77.468 L 428.202 75.554 L 428.202 286.568 L 427.245 298.052 L 425.81 307.621 L 421.982 323.411 L 418.633 332.981 L 415.283 340.158 L 411.456 348.292 L 405.714 357.863 L 400.929 364.083 L 395.666 370.303 L 385.139 380.83 L 384.182 380.83 L 384.182 381.787 L 377.483 387.05 L 373.177 389.921 L 366.478 394.228 L 356.43 399.969 L 348.775 403.797 L 334.42 410.496 L 317.673 418.152 L 310.018 421.979 L 297.099 427.721 L 288.007 432.506 L 277.481 438.248 L 269.825 442.554 L 264.562 445.425 L 256.906 450.21 L 248.772 455.952 L 246.379 454.995 L 239.202 449.731 L 230.59 444.468 L 204.752 430.114 L 188.962 422.458 L 177.957 417.195 L 168.386 412.888 L 151.16 404.754 L 143.505 400.926 L 135.371 396.62 L 130.107 393.749 L 121.016 387.529 L 115.753 383.222 L 110.968 378.916 L 107.14 375.567 L 102.355 370.782 L 98.049 365.519 L 93.264 359.298 L 88.479 352.12 L 83.216 343.029 L 81.302 339.201 L 79.867 335.852 L 75.56 323.89 L 72.211 310.971 L 69.34 292.31 L 68.862 288.003 L 68.383 75.554 Z" fill="#C7AAEF" style="stroke-width: 1;"/>
  <path d="M 327.243 163.598 L 335.856 163.598 L 341.119 165.512 L 344.947 168.383 L 347.818 171.732 L 350.688 177.953 L 351.167 179.867 L 351.167 186.087 L 349.253 191.35 L 346.382 195.657 L 344.468 198.049 L 340.162 200.92 L 336.334 202.355 L 326.764 202.355 L 321.98 200.441 L 317.673 197.092 L 314.802 193.743 L 312.41 188.001 L 311.931 186.087 L 311.931 179.867 L 314.324 173.168 L 317.673 168.862 L 322.937 165.034 L 327.243 163.598 Z" fill="#A114E3" style="stroke-width: 1;"/>
  <path d="M 155.467 163.12 L 158.338 163.598 L 159.295 164.077 L 159.295 167.426 L 160.73 169.819 L 160.73 170.775 L 162.166 171.254 L 163.601 173.168 L 163.601 174.125 L 164.558 174.125 L 164.558 175.082 L 166.472 175.56 L 167.429 176.039 L 167.429 176.996 L 169.821 177.474 L 173.172 182.259 L 176.521 184.173 L 177 186.565 L 179.392 187.522 L 179.871 190.393 L 177.957 192.786 L 177 192.786 L 177 194.221 L 176.043 194.221 L 176.043 195.178 L 175.086 195.657 L 174.129 197.092 L 170.778 199.963 L 165.993 201.877 L 159.773 201.877 L 153.074 199.963 L 152.596 201.877 L 148.29 211.446 L 144.462 221.016 L 140.634 233.457 L 138.72 242.069 L 138.241 244.462 L 130.107 243.983 L 130.107 243.505 L 133.457 243.505 L 133.935 237.763 L 135.849 229.629 L 139.198 217.667 L 143.026 208.097 L 148.29 198.527 L 148.29 195.178 L 146.376 194.221 L 143.026 189.915 L 142.069 186.565 L 141.591 182.259 L 142.548 175.56 L 144.94 170.775 L 149.247 165.991 L 153.074 163.598 L 155.467 163.12 Z" fill="#C7AAEF" style="stroke-width: 1;"/>
  <path d="M 166.472 325.803 L 173.172 325.803 L 178.914 328.196 L 182.741 331.545 L 185.134 334.416 L 187.526 339.201 L 188.483 345.421 L 187.526 351.641 L 184.177 358.341 L 179.392 362.169 L 176.043 363.605 L 173.172 364.562 L 166.472 364.562 L 160.252 362.648 L 154.988 358.341 L 153.074 355.949 L 150.682 351.163 L 150.204 349.249 L 150.204 342.072 L 151.16 338.244 L 155.945 329.631 L 164.079 326.282 L 166.472 325.803 Z" fill="#A114E3" style="stroke-width: 1;"/>
  <path d="M 337.769 1.868 L 343.99 2.346 L 348.775 4.26 L 352.124 7.131 L 354.995 11.921 L 356.43 18.141 L 356.43 38.716 L 355.473 40.151 L 354.995 42.544 L 351.645 42.544 L 350.21 40.151 L 347.818 39.673 L 346.382 37.28 L 346.382 36.323 L 343.99 35.366 L 341.597 33.931 L 339.683 31.539 L 336.812 29.625 L 334.42 28.189 L 330.592 26.275 L 328.678 24.84 L 329.157 26.275 L 328.2 26.275 L 327.721 28.668 L 325.329 34.409 L 323.415 34.888 L 322.937 34.409 L 322.937 21.49 L 324.372 13.356 L 326.764 7.61 L 331.071 3.782 L 334.899 2.346 L 337.769 1.868 Z" fill="#D6BCF8" style="stroke-width: 1;"/>
  <path d="M 154.988 2.346 L 160.252 2.346 L 165.515 4.26 L 169.343 7.61 L 171.257 10.002 L 172.693 13.356 L 173.65 21.012 L 173.65 32.495 L 173.172 35.366 L 170.3 35.845 L 166.472 33.931 L 165.515 31.539 L 162.166 31.06 L 156.902 27.711 L 152.117 26.275 L 150.204 24.84 L 150.204 23.883 L 148.768 23.404 L 144.94 23.404 L 144.462 24.361 L 143.505 24.361 L 142.548 26.754 L 141.112 28.668 L 140.634 32.495 L 140.155 32.495 L 139.677 29.625 L 139.677 22.926 L 140.634 15.27 L 143.026 9.524 L 145.897 6.174 L 149.725 3.782 L 154.988 2.346 Z" fill="#D6BCF9" style="stroke-width: 1;"/>
  <path d="M 85.13 74.119 L 85.609 74.119 L 86.087 108.573 L 87.044 110.487 L 91.35 110.965 L 271.261 110.965 L 380.833 110.487 L 403.321 110.487 L 409.542 110.008 L 410.02 108.573 L 410.499 76.511 L 411.456 74.597 L 411.934 79.86 L 411.934 108.573 L 410.977 110.965 L 408.106 112.401 L 389.924 112.879 L 354.995 113.358 L 133.935 113.358 L 90.872 112.879 L 86.565 112.401 L 85.13 111.444 L 84.652 109.53 L 84.652 92.783 L 85.13 74.119 Z" fill="#C7AAEF" style="stroke-width: 1;"/>
  <path d="M 282.266 281.783 L 283.223 283.219 L 281.787 290.874 L 281.309 293.267 L 283.701 293.267 L 285.136 295.659 L 286.572 295.181 L 288.486 299.487 L 289.443 299.487 L 289.921 297.095 L 291.835 296.616 L 291.357 299.009 L 286.093 305.707 L 282.744 309.535 L 277.959 313.363 L 271.739 317.191 L 262.169 321.019 L 257.863 321.976 L 251.643 322.454 L 245.423 322.454 L 237.288 321.497 L 237.288 321.019 L 255.949 321.497 L 254.514 319.105 L 254.992 318.148 L 251.164 318.148 L 249.729 317.191 L 250.207 314.798 L 250.686 310.971 L 251.164 309.535 L 252.121 309.535 L 252.121 308.1 L 253.078 308.1 L 253.078 307.143 L 242.552 307.143 L 241.116 306.186 L 253.078 306.186 L 259.298 304.75 L 265.04 302.358 L 271.739 297.573 L 276.045 293.267 L 280.352 285.611 L 281.309 285.611 L 282.266 281.783 Z" fill="#5D2881" style="stroke-width: 1;"/>
  <path d="M 129.15 243.983 L 134.414 243.983 L 140.155 244.94 L 145.897 247.811 L 150.204 251.639 L 153.553 256.902 L 154.51 259.773 L 154.51 268.386 L 153.553 272.214 L 153.074 270.778 L 148.29 275.563 L 146.854 276.041 L 145.419 277.477 L 140.634 277.955 L 139.198 273.649 L 137.763 267.429 L 133.457 264.558 L 130.586 261.208 L 126.758 259.295 L 124.366 255.467 L 123.887 252.117 L 125.322 248.768 L 129.629 246.376 L 130.586 244.94 L 127.715 244.94 L 129.15 243.983 Z" fill="#40D3EC" style="stroke-width: 1;"/>
  <path d="M 237.767 131.062 L 238.724 132.975 L 236.81 135.846 L 236.331 139.196 L 238.245 143.502 L 240.638 145.894 L 241.595 146.373 L 241.595 147.33 L 242.552 147.33 L 242.552 148.287 L 243.509 148.287 L 244.944 150.679 L 247.815 153.072 L 249.25 153.55 L 251.164 157.378 L 251.643 159.292 L 252.6 159.292 L 252.6 161.684 L 255.949 163.598 L 257.863 163.12 L 261.212 160.727 L 263.126 159.77 L 264.562 157.378 L 266.476 154.507 L 267.911 148.287 L 268.868 148.765 L 268.868 153.072 L 266.476 158.813 L 262.169 164.077 L 257.863 167.426 L 253.557 169.34 L 251.164 169.819 L 246.379 169.819 L 240.638 168.383 L 234.896 165.512 L 230.111 161.206 L 226.283 152.593 L 226.283 146.851 L 228.197 140.631 L 231.068 136.325 L 234.896 132.497 L 237.767 131.062 Z" fill="#2EC4E5" style="stroke-width: 1;"/>
  <path d="M 67.426 75.554 L 68.862 76.033 L 69.34 288.003 L 71.254 301.879 L 73.168 313.363 L 76.996 326.76 L 80.345 335.852 L 86.087 347.335 L 91.35 355.949 L 97.092 363.605 L 100.92 368.39 L 106.662 374.61 L 110.011 377.959 L 113.839 381.309 L 121.495 387.529 L 128.672 392.314 L 133.935 395.663 L 141.591 399.491 L 148.768 403.319 L 162.166 409.539 L 171.735 413.845 L 178.914 417.195 L 195.66 425.329 L 206.666 430.592 L 220.541 438.248 L 228.197 442.554 L 236.81 447.817 L 245.901 454.038 L 247.815 455.473 L 250.207 454.516 L 258.342 448.774 L 262.169 446.382 L 263.126 446.382 L 262.169 448.296 L 261.212 450.688 L 259.777 450.688 L 259.777 451.645 L 256.428 454.516 L 249.729 456.909 L 246.858 456.909 L 245.423 455.952 L 245.423 454.995 L 243.03 454.038 L 238.724 450.688 L 229.154 444.947 L 225.326 442.554 L 215.278 437.291 L 213.364 435.855 L 209.536 433.941 L 204.752 431.071 L 194.703 426.286 L 184.177 421.501 L 176.521 417.673 L 164.079 411.931 L 158.816 409.539 L 135.849 398.055 L 130.586 395.184 L 125.801 391.835 L 123.409 390.878 L 115.753 384.658 L 115.274 383.701 L 113.36 382.744 L 112.882 381.787 L 110.49 380.352 L 105.705 375.088 L 99.963 369.346 L 98.049 366.954 L 95.657 364.562 L 91.829 359.777 L 90.872 358.341 L 90.872 356.427 L 89.436 355.949 L 87.044 351.641 L 87.044 350.685 L 85.609 350.206 L 85.13 347.814 L 83.695 347.335 L 83.216 344.464 L 82.259 344.464 L 78.431 336.809 L 74.603 327.239 L 71.733 316.234 L 70.776 311.928 L 70.297 304.272 L 68.383 296.138 L 67.426 289.917 L 67.426 75.554 Z" fill="#783F9C" style="stroke-width: 1;"/>
  <path d="M 362.172 243.983 L 369.349 243.983 L 375.091 245.897 L 378.919 248.289 L 383.704 254.031 L 385.618 256.902 L 387.532 261.687 L 387.532 268.386 L 385.618 273.649 L 382.747 277.955 L 379.397 281.305 L 378.44 280.826 L 381.79 276.52 L 382.747 275.084 L 381.311 274.606 L 381.311 275.563 L 377.005 277.477 L 374.134 276.998 L 372.699 275.563 L 372.22 273.649 L 372.22 270.3 L 370.785 265.993 L 368.871 264.558 L 367.914 262.165 L 361.694 255.467 L 359.78 251.639 L 359.78 249.725 L 360.737 247.811 L 366.478 246.376 L 366.957 244.94 L 362.172 244.462 L 362.172 243.983 Z" fill="#40D3EC" style="stroke-width: 1;"/>
  <path d="M 286.093 256.424 L 286.572 257.381 L 288.964 257.381 L 289.443 258.816 L 288.964 259.773 L 289.921 260.73 L 292.314 261.208 L 292.792 263.601 L 292.314 265.515 L 295.663 262.644 L 298.055 263.122 L 298.055 278.434 L 295.663 287.525 L 292.314 294.702 L 289.921 294.702 L 289.443 297.095 L 288.007 297.573 L 286.572 293.267 L 284.658 293.745 L 283.701 292.31 L 283.701 290.874 L 282.266 291.353 L 281.309 290.874 L 280.83 288.482 L 281.309 287.525 L 282.744 280.826 L 281.787 282.262 L 280.83 283.219 L 281.787 278.912 L 282.744 273.171 L 283.701 273.171 L 283.701 260.252 L 284.658 257.381 L 286.093 257.381 L 286.093 256.424 Z" fill="#6E3692" style="stroke-width: 1;"/>
  <path d="M 308.104 180.824 L 310.018 181.302 L 309.061 183.694 L 307.625 184.173 L 305.233 186.565 L 301.405 186.087 L 298.534 186.565 L 298.055 187.522 L 296.142 188.479 L 286.093 191.829 L 286.093 192.786 L 284.658 192.786 L 284.658 193.743 L 281.309 194.7 L 280.83 196.135 L 277.959 197.57 L 277.481 198.527 L 276.045 199.006 L 272.217 202.834 L 271.739 204.269 L 270.304 204.269 L 268.868 205.705 L 267.911 205.705 L 266.954 207.619 L 263.605 211.925 L 260.734 215.753 L 259.298 218.145 L 258.342 218.624 L 257.385 221.016 L 253.078 229.15 L 251.643 232.5 L 247.815 244.94 L 245.901 256.424 L 244.466 262.644 L 242.552 263.122 L 241.595 259.773 L 242.552 249.725 L 244.466 238.72 L 245.423 235.849 L 245.901 233.457 L 247.815 229.15 L 248.293 227.236 L 249.729 225.801 L 253.557 217.667 L 257.385 212.403 L 257.863 211.446 L 258.82 211.446 L 258.82 210.489 L 260.734 209.532 L 264.083 205.705 L 267.433 201.398 L 268.868 200.441 L 269.825 198.049 L 272.217 196.135 L 275.088 194.221 L 276.524 194.221 L 277.481 192.307 L 281.787 188.958 L 284.658 189.436 L 285.136 188.479 L 294.706 184.651 L 298.534 183.216 L 304.276 181.302 L 308.104 180.824 Z" fill="#C7AAEF" style="stroke-width: 1;"/>
  <path d="M 229.154 158.813 L 230.111 160.249 L 232.982 164.077 L 231.547 163.598 L 229.154 169.34 L 225.326 171.254 L 221.498 176.517 L 215.757 188.001 L 212.407 197.092 L 209.058 209.054 L 208.579 211.446 L 209.058 212.403 L 203.316 211.925 L 204.273 204.748 L 206.666 195.178 L 208.101 190.393 L 210.972 184.173 L 212.407 180.345 L 213.843 176.996 L 216.235 174.603 L 219.585 169.819 L 220.541 169.819 L 220.541 168.383 L 222.934 165.991 L 225.805 161.684 L 228.197 160.249 L 229.154 160.249 L 229.154 158.813 Z" fill="#C7AAEF" style="stroke-width: 1;"/>
  <path d="M 225.805 149.244 L 226.283 149.244 L 226.762 153.072 L 222.934 154.507 L 213.843 156.9 L 202.359 161.206 L 194.225 165.034 L 182.741 170.775 L 180.349 171.732 L 177.957 171.732 L 177.478 169.34 L 187.048 163.12 L 190.397 161.206 L 198.053 157.378 L 205.709 154.507 L 217.192 150.679 L 221.977 149.722 L 225.326 149.722 L 225.805 149.244 Z" fill="#C6A9EE" style="stroke-width: 1;"/>
  <path d="M 270.304 150.201 L 272.696 150.679 L 277.959 151.636 L 280.352 152.593 L 283.223 152.593 L 285.615 154.029 L 290.878 155.464 L 295.185 157.378 L 307.147 163.12 L 312.41 166.948 L 315.281 166.469 L 315.759 168.862 L 315.281 170.297 L 316.238 170.297 L 315.759 171.732 L 314.802 171.254 L 312.888 173.646 L 311.931 173.646 L 311.931 174.603 L 309.539 176.039 L 308.582 176.996 L 307.625 176.996 L 308.582 174.603 L 311.453 173.168 L 308.104 172.689 L 306.668 168.862 L 303.319 166.469 L 298.055 164.555 L 295.185 162.641 L 291.357 161.206 L 289.921 159.77 L 289.921 158.335 L 284.18 156.421 L 271.261 153.072 L 270.304 152.593 L 270.304 150.201 Z" fill="#C7AAEF" style="stroke-width: 1;"/>
  <path d="M 67.426 75.554 L 68.862 76.033 L 68.862 288.003 L 68.383 288.003 L 67.905 284.654 L 67.905 192.786 L 67.426 110.008 L 67.426 75.554 Z" fill="#79409D" style="stroke-width: 1;"/>
  <path d="M 119.581 35.366 L 139.198 35.366 L 139.677 35.845 L 140.155 43.979 L 140.155 69.818 L 142.069 75.076 L 144.94 79.382 L 145.897 79.86 L 145.897 80.817 L 148.29 81.774 L 153.553 83.688 L 154.988 84.167 L 159.295 84.167 L 165.036 82.253 L 166.95 81.774 L 166.95 80.817 L 170.778 77.468 L 173.172 72.683 L 173.65 69.818 L 174.129 36.323 L 175.086 35.845 L 175.564 40.63 L 175.564 66.947 L 174.607 72.683 L 171.735 78.425 L 169.343 81.296 L 165.036 84.167 L 159.295 86.084 L 153.074 85.606 L 149.247 84.645 L 145.897 82.253 L 143.505 79.382 L 142.069 78.425 L 139.677 73.162 L 139.677 71.726 L 138.72 71.726 L 138.241 69.34 L 137.763 39.673 L 137.285 36.802 L 135.849 36.802 L 135.849 35.845 L 119.581 35.845 L 119.581 35.366 Z" fill="#773F9B" style="stroke-width: 1;"/>
  <path d="M 345.425 196.135 L 345.425 197.57 L 345.425 199.484 L 346.861 199.963 L 347.818 202.834 L 349.253 203.312 L 353.081 209.532 L 354.038 212.403 L 355.952 217.188 L 357.387 220.059 L 359.301 225.801 L 360.258 227.236 L 361.215 232.021 L 361.215 229.15 L 362.172 230.107 L 362.65 234.414 L 363.129 236.327 L 362.65 237.284 L 363.607 237.763 L 361.215 238.241 L 360.737 240.155 L 364.564 242.069 L 364.564 243.026 L 362.172 243.026 L 361.694 241.112 L 360.258 240.634 L 358.823 237.284 L 359.301 235.37 L 358.823 233.935 L 357.866 234.892 L 355.952 229.15 L 355.473 226.279 L 354.516 223.887 L 353.081 220.538 L 351.167 214.317 L 347.818 208.097 L 346.861 207.619 L 345.425 203.312 L 344.468 203.312 L 343.99 200.441 L 343.033 199.484 L 343.511 198.049 L 344.468 198.049 L 345.425 196.135 Z" fill="#C7AAEF" style="stroke-width: 1;"/>
  <path d="M 353.081 143.024 L 355.473 143.502 L 356.909 145.894 L 357.866 148.287 L 360.258 151.158 L 361.215 153.55 L 364.086 155.943 L 365.521 158.813 L 363.607 159.77 L 360.258 158.813 L 360.258 159.77 L 357.387 159.77 L 353.559 157.856 L 351.167 155.943 L 350.21 152.593 L 350.21 149.244 L 351.167 145.894 L 353.081 143.024 Z" fill="#C7AAEF" style="stroke-width: 1;"/>
  <path d="M 67.905 192.786 L 68.383 192.786 L 68.383 288.003 L 69.34 288.003 L 71.254 301.879 L 73.168 313.363 L 76.996 326.76 L 77.953 332.502 L 79.867 337.287 L 82.738 343.029 L 82.259 344.464 L 78.431 336.809 L 74.603 327.239 L 71.733 316.234 L 70.776 311.928 L 70.297 304.272 L 68.383 296.138 L 67.426 289.917 L 67.426 243.505 L 67.905 192.786 Z" fill="#652F89" style="stroke-width: 1;"/>
  <path d="M 411.934 74.597 L 417.197 74.597 L 424.375 75.076 L 426.767 75.554 L 426.289 76.99 L 426.289 96.611 L 424.853 96.611 L 423.896 95.654 L 423.896 90.869 L 422.939 90.869 L 422.461 85.606 L 421.982 83.688 L 422.461 79.86 L 417.197 80.817 L 417.197 81.774 L 415.283 82.253 L 413.848 77.947 L 412.891 77.947 L 412.891 75.076 L 411.934 74.597 Z" fill="#FDFDFD" style="stroke-width: 1;"/>
  <path d="M 145.897 25.797 L 151.639 27.232 L 154.031 28.668 L 154.51 30.103 L 157.859 31.06 L 159.773 32.495 L 163.123 33.931 L 165.993 33.931 L 168.864 36.802 L 171.257 36.802 L 171.257 38.237 L 168.386 38.716 L 167.907 39.673 L 162.644 38.237 L 160.73 36.323 L 154.031 33.452 L 152.596 32.495 L 149.725 32.495 L 147.333 30.103 L 145.419 29.146 L 144.462 32.495 L 141.591 34.888 L 140.155 34.888 L 140.155 32.974 L 141.112 32.974 L 141.591 30.582 L 143.026 30.103 L 143.505 27.232 L 145.897 25.797 Z" fill="#D6BCF9" style="stroke-width: 1;"/>
  <path d="M 69.819 76.033 L 70.297 76.033 L 70.776 111.922 L 71.254 114.315 L 71.254 146.373 L 70.776 162.163 L 70.776 211.446 L 69.819 211.925 L 69.819 76.033 Z" fill="#D6BCF9" style="stroke-width: 1;"/>
  <path d="M 136.328 395.663 L 138.72 395.663 L 140.155 396.62 L 143.026 397.577 L 147.333 399.491 L 150.204 400.926 L 155.467 404.754 L 161.209 407.147 L 165.515 409.06 L 166.95 409.539 L 166.95 410.496 L 169.821 410.974 L 177.957 414.324 L 178.435 415.759 L 181.784 416.716 L 186.569 418.63 L 188.962 420.544 L 190.876 421.022 L 190.876 421.979 L 194.225 422.458 L 196.617 423.893 L 199.01 424.372 L 205.23 427.243 L 210.015 429.635 L 210.015 430.592 L 210.972 430.592 L 210.972 431.549 L 212.886 432.506 L 214.321 433.941 L 211.45 432.985 L 204.752 429.157 L 194.703 424.372 L 186.091 420.544 L 177.957 416.238 L 165.036 410.496 L 155.467 406.19 L 140.155 398.055 L 136.328 396.141 L 136.328 395.663 Z" fill="#D6BCF9" style="stroke-width: 1;"/>
  <path d="M 291.357 242.069 L 293.271 242.548 L 293.271 244.462 L 294.706 244.462 L 294.706 243.026 L 295.663 243.026 L 296.142 245.897 L 298.055 246.854 L 298.055 263.122 L 296.142 263.122 L 295.185 265.036 L 295.185 264.079 L 294.228 264.079 L 294.706 262.644 L 294.706 261.687 L 293.749 260.73 L 293.749 257.381 L 294.706 254.51 L 295.663 254.031 L 292.314 253.074 L 290.878 252.117 L 291.357 249.246 L 290.4 247.333 L 290.878 246.376 L 290.878 243.026 L 291.357 242.069 Z" fill="#6E3692" style="stroke-width: 1;"/>
  <path d="M 157.381 162.163 L 163.123 162.163 L 165.993 164.077 L 165.515 168.383 L 167.429 169.34 L 169.821 173.168 L 172.693 173.646 L 173.65 175.56 L 175.086 176.039 L 175.564 178.431 L 177.957 180.345 L 180.349 184.173 L 180.828 185.608 L 180.828 188.958 L 179.871 189.436 L 179.871 186.565 L 178.435 186.087 L 175.564 182.259 L 172.693 180.345 L 172.693 179.388 L 171.735 179.388 L 170.3 176.996 L 167.907 175.56 L 163.601 170.297 L 161.687 168.383 L 161.687 165.512 L 162.644 164.077 L 160.73 163.12 L 157.381 162.641 L 157.381 162.163 Z" fill="#C7AAEF" style="stroke-width: 1;"/>
  <path d="M 76.996 329.631 L 77.953 329.631 L 80.345 335.852 L 86.087 347.335 L 91.35 355.949 L 97.092 363.605 L 100.92 368.39 L 106.662 374.61 L 110.011 377.959 L 113.839 381.309 L 121.495 387.529 L 123.887 389.921 L 124.844 391.357 L 122.93 390.4 L 116.231 385.136 L 115.274 383.701 L 113.36 382.744 L 112.882 381.787 L 110.49 380.352 L 105.705 375.088 L 99.963 369.346 L 98.049 366.954 L 95.657 364.562 L 91.829 359.777 L 90.872 358.341 L 90.872 356.427 L 89.436 355.949 L 87.044 351.641 L 87.044 350.685 L 85.609 350.206 L 85.13 347.814 L 83.695 347.335 L 81.781 342.072 L 78.431 334.895 L 76.996 331.067 L 76.996 329.631 Z" fill="#6E3691" style="stroke-width: 1;"/>
  <path d="M 278.916 228.672 L 279.873 229.15 L 279.395 231.543 L 278.438 235.37 L 277.002 236.806 L 275.088 240.634 L 272.696 241.591 L 273.174 242.548 L 272.217 242.548 L 271.739 245.419 L 267.433 245.419 L 267.433 244.462 L 265.04 245.419 L 265.997 242.548 L 269.347 238.72 L 273.653 233.935 L 277.002 230.107 L 278.916 228.672 Z" fill="#6F3793" style="stroke-width: 1;"/>
  <path d="M 123.409 388.964 L 133.935 395.663 L 141.591 399.491 L 148.768 403.319 L 162.166 409.539 L 171.735 413.845 L 178.914 417.195 L 195.66 425.329 L 199.488 427.243 L 199.01 428.2 L 192.311 425.329 L 186.569 422.458 L 175.564 417.195 L 158.816 409.539 L 135.849 398.055 L 130.586 395.184 L 123.887 390.4 L 123.409 388.964 Z" fill="#79409D" style="stroke-width: 1;"/>
  <path d="M 154.988 2.346 L 160.252 2.346 L 165.515 4.26 L 169.343 7.61 L 171.257 10.002 L 172.693 13.356 L 173.65 21.012 L 173.65 32.495 L 173.172 32.495 L 172.214 16.706 L 171.257 16.706 L 168.864 10.964 L 163.601 7.61 L 163.601 6.653 L 162.644 6.653 L 160.252 4.26 L 159.295 4.739 L 152.596 4.739 L 152.596 2.825 L 154.988 2.346 Z" fill="#E2CFFA" style="stroke-width: 1;"/>
  <path d="M 354.038 142.067 L 356.909 142.545 L 358.823 143.981 L 360.258 146.851 L 362.172 149.244 L 364.086 152.593 L 366.957 156.9 L 371.742 168.862 L 373.177 175.082 L 374.613 176.996 L 375.569 181.302 L 374.134 181.781 L 372.699 176.996 L 369.828 170.775 L 367.914 166.469 L 366 162.641 L 366.957 162.163 L 366 157.856 L 359.78 148.765 L 357.866 146.851 L 356.43 143.502 L 354.038 142.545 L 354.038 142.067 Z" fill="#C7AAEF" style="stroke-width: 1;"/>
  <path d="M 277.002 186.565 L 286.093 186.565 L 284.658 187.522 L 279.873 188.958 L 276.524 191.829 L 274.61 193.743 L 273.653 193.743 L 273.653 194.7 L 271.739 196.135 L 270.782 196.135 L 270.304 197.092 L 268.868 199.006 L 267.911 199.006 L 267.911 199.963 L 266.954 199.963 L 266.954 200.92 L 264.562 202.355 L 265.519 200.441 L 267.433 199.484 L 267.911 196.135 L 269.825 195.178 L 270.304 192.786 L 269.347 190.872 L 270.304 190.872 L 270.304 191.829 L 272.696 190.872 L 273.653 188.958 L 277.002 186.565 Z" fill="#C7AAEF" style="stroke-width: 1;"/>
  <path d="M 423.896 384.179 L 424.375 385.136 L 423.896 386.572 L 422.939 386.572 L 421.982 390.878 L 420.068 393.271 L 419.111 395.663 L 417.197 396.141 L 412.891 396.62 L 412.891 395.663 L 413.848 395.663 L 415.283 390.878 L 416.719 389.443 L 417.676 389.443 L 418.154 387.05 L 420.068 386.572 L 422.461 385.615 L 423.896 384.179 Z" fill="#6E3692" style="stroke-width: 1;"/>
  <path d="M 270.304 432.506 L 272.217 432.985 L 269.347 436.334 L 266.476 437.291 L 264.562 438.726 L 263.605 438.726 L 262.648 440.64 L 260.734 441.597 L 257.863 441.119 L 257.863 436.334 L 259.777 435.855 L 262.648 437.291 L 261.691 435.377 L 261.691 433.941 L 265.997 434.898 L 266.954 433.463 L 270.304 432.506 Z" fill="#E1CDFA" style="stroke-width: 1;"/>
  <path d="M 174.607 35.845 L 175.086 35.845 L 175.564 40.63 L 175.564 66.947 L 174.607 71.726 L 173.65 72.205 L 174.129 36.323 L 174.607 35.845 Z" fill="#783F9C" style="stroke-width: 1;"/>
  <path d="M 296.142 222.93 L 298.055 223.408 L 299.012 225.322 L 302.84 228.193 L 306.19 232.021 L 306.668 234.414 L 305.233 234.414 L 305.233 235.37 L 303.319 234.892 L 302.362 232.978 L 300.926 232.978 L 300.926 232.021 L 299.491 231.543 L 298.055 226.758 L 297.099 226.279 L 296.142 224.365 L 296.142 222.93 Z" fill="#6F3793" style="stroke-width: 1;"/>
  <path d="M 378.44 227.715 L 380.833 228.193 L 381.311 230.107 L 381.311 231.064 L 380.354 231.543 L 380.833 232.021 L 380.833 235.849 L 380.833 237.284 L 380.354 239.677 L 378.44 243.983 L 377.483 243.505 L 377.005 239.198 L 377.962 234.892 L 377.962 234.414 L 376.526 239.677 L 375.569 239.677 L 376.048 235.849 L 377.005 232.978 L 378.44 227.715 Z" fill="#C7ABEF" style="stroke-width: 1;"/>
  <path d="M 86.087 67.426 L 86.565 67.426 L 87.044 73.64 L 87.044 109.051 L 85.609 108.573 L 85.609 72.683 L 86.087 67.426 Z" fill="#7A429E" style="stroke-width: 1;"/>
  <path d="M 262.169 446.382 L 263.126 446.382 L 262.169 448.296 L 261.212 450.688 L 259.777 450.688 L 259.777 451.645 L 256.428 454.516 L 251.164 456.43 L 248.772 456.43 L 250.686 454.038 L 259.298 448.296 L 262.169 446.382 Z" fill="#7C43A0" style="stroke-width: 1;"/>
  <path d="M 323.893 154.986 L 326.764 155.464 L 326.764 157.856 L 325.807 159.77 L 320.544 161.684 L 319.109 161.206 L 320.066 161.206 L 320.066 160.249 L 317.195 159.292 L 319.587 156.9 L 323.893 154.986 Z" fill="#C7AAEF" style="stroke-width: 1;"/>
  <path d="M 437.772 361.212 L 440.164 361.691 L 441.6 363.605 L 439.208 364.562 L 439.208 369.346 L 436.337 369.346 L 435.38 370.782 L 433.466 370.303 L 434.423 369.346 L 433.944 365.519 L 434.901 365.519 L 435.38 363.126 L 437.772 361.212 Z" fill="#6E3692" style="stroke-width: 1;"/>
  <path d="M 137.763 35.366 L 139.677 35.845 L 140.155 43.979 L 139.677 69.818 L 139.198 69.818 L 138.72 65.99 L 138.241 37.28 L 137.763 35.366 Z" fill="#7B429F" style="stroke-width: 1;"/>
  <path d="M 76.996 329.631 L 77.953 329.631 L 80.345 335.852 L 86.087 347.335 L 90.872 354.992 L 90.393 355.949 L 88.479 354.034 L 87.044 351.641 L 87.044 350.685 L 85.609 350.206 L 85.13 347.814 L 83.695 347.335 L 81.781 342.072 L 78.431 334.895 L 76.996 331.067 L 76.996 329.631 Z" fill="#78409C" style="stroke-width: 1;"/>
  <path d="M 281.787 246.854 L 283.223 247.333 L 283.223 275.563 L 282.744 278.912 L 282.266 278.912 L 281.787 251.639 L 281.309 249.725 L 282.266 248.289 L 280.83 248.768 L 281.787 246.854 Z" fill="#C7AAEF" style="stroke-width: 1;"/>
  <path d="M 119.581 35.366 L 137.763 35.366 L 138.72 37.28 L 139.198 71.726 L 138.72 71.726 L 138.241 69.34 L 137.763 39.673 L 137.285 36.802 L 135.849 36.802 L 135.849 35.845 L 119.581 35.845 L 119.581 35.366 Z" fill="#632E87" style="stroke-width: 1;"/>
  <path d="M 274.61 244.94 L 275.567 244.94 L 275.088 248.289 L 277.002 251.16 L 276.524 253.074 L 273.653 254.51 L 271.261 254.51 L 270.782 252.117 L 271.739 250.682 L 273.653 250.682 L 272.696 247.811 L 274.61 244.94 Z" fill="#6F3793" style="stroke-width: 1;"/>
  <path d="M 80.824 74.597 L 84.652 74.597 L 83.695 76.99 L 79.388 77.468 L 72.69 77.468 L 71.254 75.554 L 73.646 75.076 L 80.824 74.597 Z" fill="#FEFEFE" style="stroke-width: 1;"/>
  <path d="M 86.565 78.425 L 87.522 78.904 L 88.001 85.124 L 87.522 103.31 L 87.044 108.094 L 86.565 108.094 L 86.565 78.425 Z" fill="#5C277F" style="stroke-width: 1;"/>
  <path d="M 75.56 318.626 L 76.517 318.626 L 77.953 320.062 L 78.431 323.411 L 79.388 326.76 L 82.259 335.373 L 85.609 342.072 L 85.13 343.507 L 81.302 335.852 L 77.474 325.803 L 75.56 320.062 L 75.56 318.626 Z" fill="#D6BCF9" style="stroke-width: 1;"/>
  <path d="M 383.225 276.998 L 383.225 278.434 L 379.397 282.262 L 374.134 285.611 L 368.392 287.046 L 363.129 287.046 L 356.43 284.176 L 355.952 283.219 L 360.258 284.654 L 363.607 285.611 L 368.392 285.611 L 373.177 284.654 L 377.962 281.783 L 382.747 277.477 L 383.225 276.998 Z" fill="#C7AAEF" style="stroke-width: 1;"/>
  <path d="M 77.474 185.608 L 78.431 185.608 L 79.388 187.522 L 79.388 188.479 L 81.781 188.479 L 80.824 190.393 L 79.388 191.829 L 77.474 195.178 L 76.039 195.178 L 76.039 191.829 L 77.474 185.608 Z" fill="#D6BCF9" style="stroke-width: 1;"/>
  <path d="M 310.974 458.344 L 315.281 458.344 L 313.367 459.779 L 303.797 464.564 L 301.405 465.521 L 302.362 463.129 L 304.754 462.65 L 304.754 461.693 L 307.147 461.215 L 308.104 459.301 L 310.018 458.823 L 310.974 459.301 L 310.974 458.344 Z" fill="#703794" style="stroke-width: 1;"/>
  <path d="M 411.934 81.774 L 412.413 81.774 L 412.891 104.267 L 412.891 108.094 L 411.456 111.444 L 409.542 112.879 L 407.628 112.401 L 410.977 110.487 L 411.456 108.573 L 411.934 81.774 Z" fill="#D6BCF9" style="stroke-width: 1;"/>
  <path d="M 376.048 425.329 L 377.962 426.286 L 377.005 428.2 L 369.828 431.549 L 369.828 428.678 L 368.871 428.2 L 372.22 428.678 L 373.177 426.764 L 376.048 425.329 Z" fill="#763E9A" style="stroke-width: 1;"/>
  <path d="M 110.49 378.438 L 113.839 381.309 L 121.495 387.529 L 123.887 389.921 L 124.844 391.357 L 122.93 390.4 L 116.231 385.136 L 115.274 383.701 L 113.36 382.744 L 112.882 381.787 L 110.49 380.352 L 109.533 378.916 L 110.49 378.438 Z" fill="#6B348E" style="stroke-width: 1;"/>
  <path d="M 234.896 446.86 L 240.638 450.21 L 247.815 455.473 L 249.729 456.909 L 246.858 456.909 L 245.423 455.952 L 245.423 454.995 L 243.03 454.038 L 238.724 450.688 L 234.896 448.296 L 234.896 446.86 Z" fill="#773E9B" style="stroke-width: 1;"/>
  <path d="M 260.734 448.774 L 261.691 448.774 L 261.212 450.688 L 259.777 450.688 L 259.777 451.645 L 256.428 454.516 L 251.164 456.43 L 249.729 455.952 L 252.121 454.038 L 255.471 452.602 L 259.777 449.253 L 260.734 448.774 Z" fill="#6E3692" style="stroke-width: 1;"/>
  <path d="M 182.263 419.109 L 191.833 423.415 L 199.488 427.243 L 199.01 428.2 L 192.311 425.329 L 186.569 422.458 L 181.306 420.066 L 182.263 419.109 Z" fill="#773F9B" style="stroke-width: 1;"/>
  <path d="M 105.226 371.739 L 107.619 373.174 L 107.619 374.131 L 110.011 375.088 L 110.968 376.045 L 113.839 377.959 L 116.231 380.352 L 116.231 381.309 L 118.145 382.265 L 120.059 384.179 L 119.581 385.136 L 115.274 381.787 L 112.882 379.395 L 108.097 375.088 L 105.226 372.696 L 105.226 371.739 Z" fill="#D6BCF9" style="stroke-width: 1;"/>
  <path d="M 236.331 129.626 L 237.288 130.105 L 235.853 130.583 L 235.374 132.497 L 231.068 136.803 L 230.59 137.76 L 228.676 138.239 L 229.154 136.325 L 230.59 133.932 L 233.939 131.062 L 236.331 129.626 Z" fill="#DBC5F8" style="stroke-width: 1;"/>
  <path d="M 85.609 343.507 L 86.565 343.986 L 89.436 349.249 L 92.786 354.034 L 97.092 361.212 L 96.614 362.169 L 93.264 357.384 L 87.044 347.335 L 85.609 344.943 L 85.609 343.507 Z" fill="#D6BCF9" style="stroke-width: 1;"/>
  <path d="M 67.905 284.654 L 68.383 284.654 L 68.383 288.003 L 69.34 288.003 L 70.297 296.138 L 69.819 300.922 L 68.862 299.009 L 68.383 296.138 L 67.905 284.654 Z" fill="#773F9B" style="stroke-width: 1;"/>
  <path d="M 323.415 17.663 L 323.893 17.663 L 323.893 23.883 L 324.85 24.361 L 324.372 26.275 L 324.85 28.668 L 324.372 30.582 L 323.415 33.452 L 322.937 33.452 L 322.937 21.49 L 323.415 17.663 Z" fill="#D6BDF9" style="stroke-width: 1;"/>
  <path d="M 273.653 35.845 L 291.357 35.845 L 291.357 36.323 L 278.438 36.323 L 277.959 37.759 L 275.567 38.237 L 273.653 37.28 L 273.653 35.845 Z" fill="#6C3490" style="stroke-width: 1;"/>
  <path d="M 97.092 365.04 L 99.006 365.997 L 103.312 371.26 L 110.49 378.438 L 109.054 378.438 L 99.963 369.346 L 97.092 365.519 L 97.092 365.04 Z" fill="#7A419E" style="stroke-width: 1;"/>
  <path d="M 399.015 405.711 L 401.407 405.711 L 402.364 409.06 L 401.407 409.539 L 401.886 410.496 L 400.451 410.496 L 399.972 412.41 L 399.015 412.41 L 399.015 413.845 L 398.058 413.367 L 399.015 409.539 L 399.494 407.147 L 399.015 405.711 Z" fill="#6E3692" style="stroke-width: 1;"/>
  <path d="M 227.24 441.119 L 229.633 441.597 L 233.46 443.033 L 233.46 443.99 L 235.853 444.947 L 240.638 448.296 L 240.638 449.253 L 238.245 448.296 L 230.59 443.511 L 227.24 441.597 L 227.24 441.119 Z" fill="#D6BCF9" style="stroke-width: 1;"/>
  <path d="M 351.645 34.888 L 353.081 34.888 L 353.081 36.323 L 355.952 35.845 L 355.473 37.759 L 354.516 37.759 L 354.038 39.194 L 352.124 38.716 L 350.688 37.28 L 350.21 35.845 L 351.645 34.888 Z" fill="#C7AAEF" style="stroke-width: 1;"/>
  <path d="M 189.44 163.12 L 190.397 163.598 L 187.526 165.991 L 182.741 168.383 L 181.306 169.819 L 179.392 170.775 L 177.957 170.775 L 178.435 169.34 L 182.741 166.948 L 189.44 163.12 Z" fill="#7C43A0" style="stroke-width: 1;"/>
  <path d="M 83.216 345.421 L 85.609 346.378 L 90.393 354.514 L 90.393 355.949 L 88.479 354.034 L 87.044 351.641 L 87.044 350.685 L 85.609 350.206 L 85.13 347.814 L 83.695 347.335 L 83.216 345.421 Z" fill="#733B97" style="stroke-width: 1;"/>
  <path d="M 129.15 376.524 L 132.021 377.002 L 135.849 377.481 L 136.328 378.916 L 135.849 381.309 L 133.457 379.873 L 129.15 377.002 L 129.15 376.524 Z" fill="#E1CDFA" style="stroke-width: 1;"/>
  <path d="M 282.266 243.505 L 283.701 243.983 L 284.18 246.854 L 281.787 246.376 L 281.309 247.811 L 279.395 246.854 L 280.352 243.983 L 282.266 243.505 Z" fill="#6E3692" style="stroke-width: 1;"/>
  <path d="M 341.119 27.711 L 346.861 30.582 L 346.861 31.539 L 347.818 31.539 L 347.818 32.974 L 345.425 32.974 L 341.597 29.625 L 341.119 27.711 Z" fill="#C7AAEF" style="stroke-width: 1;"/>
  <path d="M 285.615 250.203 L 287.05 250.203 L 287.529 251.16 L 288.964 251.16 L 289.443 254.031 L 288.486 255.467 L 286.093 253.553 L 285.136 254.031 L 285.136 251.16 L 285.615 252.117 L 286.572 252.117 L 285.615 250.203 Z" fill="#6E3692" style="stroke-width: 1;"/>
  <path d="M 269.347 443.033 L 270.304 443.511 L 268.868 445.904 L 267.433 445.904 L 267.433 446.86 L 265.997 446.86 L 265.519 447.817 L 263.605 447.817 L 263.605 448.774 L 261.691 448.296 L 264.083 446.382 L 268.868 443.511 L 269.347 443.033 Z" fill="#6E3692" style="stroke-width: 1;"/>
  <path d="M 77.474 185.608 L 78.431 185.608 L 79.388 187.522 L 79.388 188.479 L 78.91 190.872 L 76.996 192.307 L 76.517 189.915 L 77.474 185.608 Z" fill="#D9C1F9" style="stroke-width: 1;"/>
  <path d="M 199.488 427.243 L 208.579 431.549 L 210.493 433.463 L 208.101 432.985 L 199.967 428.678 L 199.488 427.243 Z" fill="#7A419E" style="stroke-width: 1;"/>
  <path d="M 127.715 393.271 L 130.107 394.228 L 133.935 396.62 L 139.198 399.491 L 140.155 400.448 L 137.763 399.969 L 134.892 398.534 L 134.892 397.577 L 132.021 397.098 L 127.715 393.749 L 127.715 393.271 Z" fill="#5C277F" style="stroke-width: 1;"/>
  <path d="M 105.226 418.63 L 109.054 419.109 L 109.054 420.066 L 111.447 421.022 L 112.403 423.415 L 110.011 422.458 L 105.226 419.109 L 105.226 418.63 Z" fill="#642F87" style="stroke-width: 1;"/>
  <path d="M 156.424 407.147 L 161.209 409.06 L 165.515 411.453 L 165.036 412.41 L 158.816 409.539 L 155.467 408.103 L 156.424 407.147 Z" fill="#783F9C" style="stroke-width: 1;"/>
  <path d="M 315.759 194.221 L 318.152 195.657 L 321.98 199.006 L 326.764 201.398 L 325.329 201.877 L 321.501 199.963 L 317.673 197.092 L 315.759 195.178 L 315.759 194.221 Z" fill="#713995" style="stroke-width: 1;"/>
  <path d="M 285.136 221.973 L 285.615 222.93 L 283.223 226.758 L 282.266 226.758 L 282.266 227.715 L 280.352 228.193 L 280.83 225.801 L 285.136 221.973 Z" fill="#6F3793" style="stroke-width: 1;"/>
  <path d="M 187.048 163.12 L 188.483 163.12 L 188.483 164.077 L 182.741 167.426 L 179.392 169.34 L 178.435 168.862 L 187.048 163.12 Z" fill="#C7AAEF" style="stroke-width: 1;"/>
  <path d="M 347.818 4.26 L 349.731 5.217 L 352.124 7.131 L 352.602 8.567 L 351.645 9.045 L 347.818 6.653 L 347.818 4.26 Z" fill="#E4D2FA" style="stroke-width: 1;"/>
  <path d="M 288.486 218.145 L 291.835 218.145 L 292.792 219.102 L 289.921 220.059 L 287.05 221.495 L 285.615 221.016 L 287.529 218.624 L 288.486 218.145 Z" fill="#6F3793" style="stroke-width: 1;"/>
  <path d="M 307.147 461.215 L 308.104 462.172 L 302.362 465.521 L 301.405 465.521 L 302.362 463.129 L 304.754 462.65 L 304.754 461.693 L 307.147 461.215 Z" fill="#723A96" style="stroke-width: 1;"/>
  <path d="M 249.25 451.645 L 251.164 452.602 L 247.815 454.995 L 245.901 454.038 L 244.466 452.602 L 245.901 452.124 L 249.25 452.602 L 249.25 451.645 Z" fill="#D6BCF9" style="stroke-width: 1;"/>
  <path d="M 246.858 425.807 L 251.643 426.764 L 253.078 429.157 L 249.729 429.157 L 249.729 428.2 L 247.336 427.243 L 246.858 425.807 Z" fill="#E1CDFA" style="stroke-width: 1;"/>
  <path d="M 324.85 23.883 L 325.329 25.797 L 325.807 28.189 L 325.329 31.06 L 323.893 32.974 L 323.893 28.668 L 324.85 28.668 L 323.893 26.275 L 324.372 24.361 L 324.85 23.883 Z" fill="#C7AAEF" style="stroke-width: 1;"/>
  <path d="M 376.048 425.329 L 377.962 426.286 L 377.005 428.2 L 375.091 428.678 L 373.177 428.2 L 373.177 426.764 L 376.048 425.329 Z" fill="#7E46A2" style="stroke-width: 1;"/>
  <path d="M 240.638 321.976 L 256.906 321.976 L 256.906 322.454 L 252.6 322.454 L 252.6 323.411 L 240.638 322.454 L 240.638 321.976 Z" fill="#C7AAEF" style="stroke-width: 1;"/>
  <path d="M 110.49 378.438 L 113.839 381.309 L 116.71 383.701 L 115.274 383.701 L 113.36 382.744 L 112.882 381.787 L 110.49 380.352 L 109.533 378.916 L 110.49 378.438 Z" fill="#723A96" style="stroke-width: 1;"/>
  <path d="M 312.888 187.044 L 314.324 187.522 L 315.281 191.829 L 315.759 194.221 L 314.324 192.786 L 312.888 189.436 L 312.888 187.044 Z" fill="#713696" style="stroke-width: 1;"/>
  <path d="M 175.086 415.759 L 177.957 416.716 L 182.263 419.109 L 180.349 419.587 L 175.086 416.716 L 175.086 415.759 Z" fill="#79409D" style="stroke-width: 1;"/>
  <path d="M 74.603 323.411 L 76.039 323.89 L 77.474 328.196 L 76.996 330.11 L 76.039 328.674 L 74.603 324.847 L 74.603 323.411 Z" fill="#783F9C" style="stroke-width: 1;"/>
  <path d="M 323.893 16.227 L 324.85 18.141 L 325.329 22.447 L 324.85 23.883 L 323.893 23.883 L 323.893 16.227 Z" fill="#C7AAEF" style="stroke-width: 1;"/>
  <path d="M 348.296 252.117 L 348.775 252.117 L 348.296 255.467 L 346.861 257.381 L 345.904 257.381 L 346.382 254.51 L 346.861 253.553 L 347.818 253.553 L 348.296 252.117 Z" fill="#DBC4F8" style="stroke-width: 1;"/>
  <path d="M 291.357 242.069 L 293.271 242.548 L 293.271 244.462 L 294.228 244.462 L 293.749 245.897 L 292.314 245.897 L 292.314 244.94 L 290.878 244.94 L 291.357 242.069 Z" fill="#713995" style="stroke-width: 1;"/>
  <path d="M 395.666 126.755 L 398.058 127.712 L 398.537 129.148 L 401.407 130.105 L 402.364 131.54 L 399.015 130.583 L 395.666 127.234 L 395.666 126.755 Z" fill="#E1CDFA" style="stroke-width: 1;"/>
  <path d="M 138.241 398.055 L 143.983 400.926 L 143.505 401.883 L 137.285 399.012 L 138.241 398.055 Z" fill="#783F9C" style="stroke-width: 1;"/>
  <path d="M 254.514 304.75 L 257.385 304.75 L 255.949 306.186 L 250.686 306.186 L 251.164 305.229 L 254.514 304.75 Z" fill="#DDC8F8" style="stroke-width: 1;"/>
  <path d="M 99.963 414.324 L 102.834 415.281 L 104.269 416.716 L 103.791 418.152 L 99.963 415.281 L 99.963 414.324 Z" fill="#67338A" style="stroke-width: 1;"/>
  <path d="M 97.092 365.04 L 99.006 365.997 L 102.355 369.825 L 102.355 370.782 L 100.441 369.825 L 97.092 365.519 L 97.092 365.04 Z" fill="#79409D" style="stroke-width: 1;"/>
  <path d="M 68.383 293.745 L 69.34 295.181 L 69.34 296.138 L 70.297 296.138 L 69.819 300.922 L 68.862 299.009 L 68.383 293.745 Z" fill="#69328D" style="stroke-width: 1;"/>
  <path d="M 317.195 454.995 L 321.023 455.473 L 319.109 456.909 L 316.238 457.866 L 316.238 456.43 L 317.195 456.43 L 317.195 454.995 Z" fill="#703894" style="stroke-width: 1;"/>
  <path d="M 389.924 418.152 L 391.838 418.63 L 389.924 420.544 L 388.01 421.501 L 388.488 419.109 L 389.924 418.152 Z" fill="#824DA7" style="stroke-width: 1;"/>
  <path d="M 352.124 247.333 L 352.602 248.289 L 351.167 250.682 L 349.253 251.16 L 350.21 248.768 L 352.124 247.333 Z" fill="#DCC6F8" style="stroke-width: 1;"/>
  <path d="M 345.425 196.135 L 345.425 197.57 L 345.425 199.484 L 346.861 199.963 L 343.511 200.441 L 343.033 198.527 L 344.468 198.049 L 345.425 196.135 Z" fill="#C8ACF0" style="stroke-width: 1;"/>
</svg>